<svg width="240" height="203" viewBox="0 0 240 203" fill="none" xmlns="http://www.w3.org/2000/svg">
    <g clip-path="url(#clip0_26_233)">
        <path
            d="M195.461 97.7305C195.461 100.576 195.341 103.392 195.102 106.18C194.914 108.356 194.657 110.513 194.331 112.65C193.985 114.912 193.561 117.148 193.059 119.356V119.358C192.73 120.812 192.37 122.253 191.977 123.683C190.837 127.838 189.42 131.913 187.734 135.879C187.368 136.741 186.989 137.598 186.599 138.449C185.122 141.672 183.469 144.81 181.646 147.851C176.535 156.388 170.154 164.099 162.724 170.718C161.92 171.433 161.104 172.136 160.278 172.828C142.734 187.484 120.591 195.496 97.7305 195.461C43.7548 195.461 0 151.706 0 97.7305C0 43.7548 43.7548 -1.02376e-06 97.7305 -1.02376e-06C119.804 -0.0348051 141.233 7.43666 158.499 21.1877C159.308 21.829 160.108 22.4848 160.897 23.155C164.747 26.4203 168.34 29.9769 171.644 33.7934H171.647C187.038 51.5351 195.496 74.2432 195.461 97.7305Z"
            fill="#F2F2F2" />
        <path
            d="M28.85 114.612C19.54 109.071 12.5132 98.7156 13.4254 87.92C21.937 96.0664 33.0558 100.94 44.8145 101.677C49.3504 101.945 54.4233 101.771 57.7622 104.853C59.8398 106.771 60.8069 109.658 60.9655 112.48C61.1241 115.303 60.5586 118.111 59.9961 120.882L60.1897 121.561C49.3556 121.601 38.1599 120.153 28.85 114.612Z"
            fill="#E6E6E6" />
        <path
            d="M13.6524 87.9084C17.3827 96.0634 23.5876 102.836 31.386 107.263C33.0624 108.202 34.8447 109.008 36.7388 109.382C38.5877 109.732 40.4968 109.581 42.2675 108.944C43.9305 108.383 45.5666 107.616 47.3369 107.47C49.203 107.315 50.9305 108.035 52.2878 109.296C53.9485 110.839 54.9558 112.886 55.8713 114.923C56.8877 117.184 57.9077 119.549 59.8565 121.175C60.0926 121.372 59.7731 121.727 59.5374 121.53C56.1467 118.701 55.5933 113.963 52.883 110.631C51.6183 109.076 49.8774 107.893 47.8093 107.924C46.0008 107.952 44.313 108.74 42.6341 109.323C40.8712 109.934 39.1052 110.222 37.2441 109.952C35.3403 109.677 33.5227 108.939 31.8296 108.048C28.0054 105.998 24.5272 103.359 21.5226 100.229C18.0736 96.6748 15.258 92.5573 13.1975 88.054C13.0701 87.7752 13.5258 87.6315 13.6524 87.9084Z"
            fill="white" />
        <path
            d="M28.7911 105.985C27.8706 107.193 26.5508 108.034 25.0675 108.358C23.5842 108.683 22.0338 108.469 20.6934 107.756C20.4227 107.611 20.6357 107.183 20.9068 107.329C22.1537 107.995 23.5979 108.194 24.9785 107.889C26.3592 107.584 27.5854 106.796 28.4359 105.666C28.621 105.421 28.9751 105.742 28.7911 105.985Z"
            fill="white" />
        <path
            d="M41.4618 109.339C41.0744 106.259 39.5405 103.439 37.166 101.44C36.9306 101.242 37.25 100.887 37.4852 101.085C39.9523 103.17 41.5426 106.108 41.9387 109.314C41.9762 109.619 41.4992 109.643 41.4618 109.339Z"
            fill="white" />
        <path
            d="M18.6659 96.4508C19.1194 96.0578 19.4682 95.5583 19.681 94.9971C19.8937 94.436 19.9638 93.8308 19.8849 93.2359C19.8435 92.931 20.3206 92.9075 20.3617 93.2105C20.4458 93.8681 20.3676 94.5364 20.1339 95.1569C19.9003 95.7774 19.5182 96.3312 19.0211 96.7699C18.9777 96.8152 18.9187 96.8423 18.856 96.8456C18.7934 96.849 18.7319 96.8284 18.6839 96.7879C18.6371 96.7455 18.6089 96.6862 18.6056 96.6231C18.6022 96.5599 18.6239 96.498 18.6659 96.4508Z"
            fill="white" />
        <path
            d="M43.5609 67.0052C43.5922 67.1949 43.6235 67.3846 43.6583 67.5761C44.0919 70.1239 44.7317 72.6323 45.5714 75.0765C45.6333 75.2665 45.699 75.4581 45.7662 75.646C47.8522 81.5131 51.0092 86.9419 55.077 91.6565C56.6974 93.5311 58.458 95.2797 60.3437 96.8871C62.948 99.1069 65.9483 101.306 67.6181 104.173C67.7957 104.47 67.9546 104.777 68.0942 105.094L61.0024 121.272C60.9679 121.3 60.9369 121.331 60.9022 121.36L60.6486 122.019C60.5456 121.942 60.4403 121.861 60.3373 121.785C60.2773 121.741 60.219 121.694 60.159 121.65C60.1196 121.619 60.0801 121.589 60.0428 121.564C60.0296 121.554 60.0165 121.543 60.007 121.535C59.9696 121.51 59.9376 121.482 59.904 121.459C59.3145 121.007 58.7271 120.55 58.1419 120.088C58.1383 120.086 58.1383 120.086 58.1361 120.081C53.6863 116.551 49.4921 112.618 46.0281 108.173C45.924 108.039 45.816 107.904 45.7151 107.763C44.1649 105.751 42.7816 103.615 41.5793 101.378C40.9248 100.151 40.333 98.8911 39.8059 97.604C38.4504 94.2757 37.6269 90.7549 37.3656 87.1707C36.8456 80.0254 38.6166 72.7935 43.2062 67.4129C43.3237 67.2753 43.4397 67.1412 43.5609 67.0052Z"
            fill="#E6E6E6" />
        <path
            d="M43.7507 67.1316C41.8192 75.8888 42.6962 85.0319 46.257 93.2622C47.0305 95.0208 47.9683 96.7375 49.2555 98.1764C50.5209 99.5692 52.1363 100.598 53.9336 101.155C55.5991 101.709 57.3668 102.082 58.8687 103.031C60.4518 104.031 61.3977 105.645 61.7222 107.469C62.1193 109.701 61.6908 111.942 61.1957 114.12C60.6459 116.537 60.0365 119.039 60.6135 121.511C60.6834 121.81 60.2147 121.901 60.1449 121.602C59.1409 117.302 61.5516 113.186 61.3936 108.894C61.3199 106.891 60.6422 104.898 58.9721 103.678C57.5117 102.611 55.6892 102.225 53.998 101.679C52.2223 101.106 50.6393 100.272 49.3153 98.9364C47.9609 97.5704 46.954 95.8868 46.1389 94.1557C44.3197 90.2164 43.1312 86.0155 42.617 81.707C42.0028 76.793 42.2337 71.8102 43.2998 66.974C43.3659 66.6747 43.8163 66.8343 43.7507 67.1316Z"
            fill="white" />
        <path
            d="M44.9543 90.6796C43.4923 91.0896 41.9322 90.9665 40.5526 90.3324C39.173 89.6983 38.0637 88.5944 37.4228 87.2179C37.2941 86.9389 37.7215 86.7258 37.8504 87.0051C38.4448 88.288 39.4782 89.3162 40.7641 89.9041C42.05 90.4919 43.5037 90.6008 44.8628 90.2109C45.1583 90.1266 45.248 90.5957 44.9543 90.6796Z"
            fill="white" />
        <path
            d="M53.0522 100.986C54.597 98.2937 55.0704 95.1183 54.3779 92.0926C54.3091 91.7929 54.7778 91.7019 54.8466 92.0012C55.5613 95.1511 55.062 98.4546 53.4483 101.253C53.2943 101.519 52.8991 101.251 53.0522 100.986Z"
            fill="white" />
        <path
            d="M42.6103 76.9705C43.209 76.9298 43.7883 76.741 44.296 76.421C44.8037 76.1011 45.224 75.6601 45.5192 75.1376C45.6697 74.8692 46.0648 75.1377 45.9152 75.4043C45.5864 75.9801 45.1216 76.4666 44.5615 76.8213C44.0013 77.176 43.3628 77.3882 42.7017 77.4392C42.6398 77.4492 42.5764 77.4353 42.5244 77.4003C42.4724 77.3653 42.4357 77.3117 42.4217 77.2506C42.4099 77.1885 42.4231 77.1242 42.4584 77.0718C42.4937 77.0193 42.5483 76.9829 42.6103 76.9705Z"
            fill="white" />
        <path
            d="M67.6986 22.6511L79.6604 162.679L55.7368 164.477V24.4326C58.5875 22.5463 62.6797 22.2512 67.6986 22.6511Z"
            fill="#CCCCCC" />
        <path
            d="M126.744 22.6511L114.782 162.679L138.706 164.477V24.4326C135.855 22.5463 131.763 22.2512 126.744 22.6511Z"
            fill="#CCCCCC" />
        <path
            d="M135.124 170.265H59.0645C57.8449 170.264 56.6756 169.778 55.8132 168.916C54.9508 168.054 54.4657 166.884 54.4644 165.665V26.4877C54.4657 25.2681 54.9508 24.0988 55.8132 23.2365C56.6756 22.3741 57.8449 21.889 59.0645 21.8876H135.124C136.344 21.889 137.513 22.3741 138.375 23.2365C139.238 24.0988 139.723 25.2681 139.724 26.4877V165.665C139.723 166.884 139.238 168.054 138.375 168.916C137.513 169.778 136.344 170.264 135.124 170.265ZM59.0645 23.4146C58.2497 23.4155 57.4686 23.7396 56.8925 24.3157C56.3164 24.8918 55.9923 25.6729 55.9914 26.4877V165.665C55.9923 166.479 56.3164 167.261 56.8925 167.837C57.4686 168.413 58.2497 168.737 59.0645 168.738H135.124C135.939 168.737 136.72 168.413 137.296 167.837C137.872 167.261 138.196 166.479 138.197 165.665V26.4877C138.196 25.6729 137.872 24.8918 137.296 24.3157C136.72 23.7396 135.939 23.4155 135.124 23.4146L59.0645 23.4146Z"
            fill="#CCCCCC" />
        <path d="M138.961 45.0476H55.228V46.5746H138.961V45.0476Z" fill="#CCCCCC" />
        <path d="M138.961 70.4983H55.228V72.0253H138.961V70.4983Z" fill="#CCCCCC" />
        <path d="M82.4001 22.6511H80.873V92.1314H82.4001V22.6511Z" fill="#CCCCCC" />
        <path d="M113.316 22.6511H111.789V92.1314H113.316V22.6511Z" fill="#CCCCCC" />
        <path
            d="M148.505 174.464H48.2291C46.4066 174.464 44.6588 173.74 43.3701 172.452C42.0814 171.163 41.3574 169.415 41.3574 167.593C41.3574 165.77 42.0814 164.022 43.3701 162.734C44.6588 161.445 46.4066 160.721 48.2291 160.721H148.505C150.327 160.721 152.075 161.445 153.364 162.734C154.652 164.022 155.376 165.77 155.376 167.593C155.376 169.415 154.652 171.163 153.364 172.452C152.075 173.74 150.327 174.464 148.505 174.464Z"
            fill="#CCCCCC" />
        <path d="M138.96 88.5684H55.7368V93.6585H138.96V88.5684Z" fill="#CCCCCC" />
        <path
            d="M82.637 104.768L82.5314 104.717C76.858 101.976 69.4286 101.979 58.4415 104.726L58.3242 104.755L58.289 104.639C57.1267 100.828 55.81 96.5118 58.2835 94.3882C58.3182 88.1565 63.7845 83.0963 70.4987 83.0963C77.2116 83.0963 82.6772 88.1539 82.7138 94.384C86.3933 97.1972 84.6398 101.354 82.6964 104.667L82.637 104.768Z"
            fill="#2F2E41" />
        <path
            d="M117.507 91.424C117.406 91.9289 117.194 92.4054 116.889 92.82C116.583 93.2345 116.19 93.5769 115.737 93.8231C115.285 94.0693 114.784 94.2134 114.27 94.245C113.756 94.2767 113.241 94.1953 112.762 94.0064L92.7121 114.154L90.9233 107.898L110.836 89.1883C111.207 88.4042 111.852 87.7833 112.65 87.4432C113.448 87.1031 114.342 87.0675 115.165 87.343C115.987 87.6186 116.68 88.1863 117.111 88.9384C117.543 89.6905 117.684 90.5749 117.507 91.424Z"
            fill="#FFB6B6" />
        <path
            d="M67.9554 110.82C67.9554 110.82 66.1364 114.943 70.6247 117.485C75.1131 120.027 90.8002 116.515 93.3456 116.024C95.891 115.534 105.398 101.307 105.398 101.307L104.053 94.3295L91.4452 105.274L67.9554 110.82Z"
            fill="#D02E2F" />
        <path
            d="M64.6447 133.616L64.8992 138.452C64.8992 138.452 64.148 142.735 64.7658 143.659C65.3789 144.579 82.1105 144.695 82.1105 144.695C82.1105 144.695 83.216 138.736 84.1683 133.519L64.6447 133.616Z"
            fill="#FFB6B6" />
        <path d="M112.75 197.553L116.248 196.847L115.247 182.718L110.084 183.761L112.75 197.553Z" fill="#FFB6B6" />
        <path d="M117.76 179.167L121.012 177.705L116.794 164.187L111.994 166.345L117.76 179.167Z" fill="#FFB6B6" />
        <path
            d="M120.593 171.55L114.47 175.017L99.3696 150.752C88.769 157.894 78.403 161.314 67.9532 163.139C64.4201 163.768 60.8179 163.449 60.1397 159.853C60.1079 159.685 60.0827 159.516 60.0638 159.346C59.6466 155.418 64.5325 150.383 65.1536 145.578L78.5255 144.775L80.1744 146.889L95.6386 137.382C98.7485 135.47 102.839 136.504 104.774 139.692C104.877 139.86 104.972 140.032 105.059 140.209L120.593 171.55Z"
            fill="#2F2E41" />
        <path
            d="M116.846 187.874L109.839 188.525L97.1362 162.544C84.5393 164.711 72.6552 165.405 62.376 162.784C58.8958 161.909 56.7684 158.315 57.6244 154.758C57.6644 154.591 57.7107 154.427 57.7632 154.264C58.9934 150.51 62.2137 147.855 64.7509 143.726L83.2832 144.008L81.2133 151.15L99.2162 148.82C102.837 148.352 106.143 150.972 106.601 154.673C106.626 154.869 106.641 155.065 106.649 155.262L116.846 187.874Z"
            fill="#2F2E41" />
        <path
            d="M71.8807 101.074C76.0367 101.074 79.4059 97.7049 79.4059 93.5489C79.4059 89.3928 76.0367 86.0237 71.8807 86.0237C67.7246 86.0237 64.3555 89.3928 64.3555 93.5489C64.3555 97.7049 67.7246 101.074 71.8807 101.074Z"
            fill="#FFB6B6" />
        <path
            d="M67.4695 103.791L74.3694 104.603C74.6603 104.637 74.9334 104.761 75.1505 104.958C75.3675 105.154 75.5178 105.414 75.5804 105.7L76.6777 110.721L83.5179 118.777C83.5179 118.777 85.9742 123.382 85.0531 128.602C84.132 133.821 83.7272 137.7 83.7272 137.7C83.7272 137.7 65.3783 144.58 64.7642 143.659C64.1502 142.737 63.9509 138.554 63.9509 138.554L61.4946 111.227C61.4946 111.227 64.2579 106.622 65.7931 106.622C66.7839 106.588 66.6568 104.359 67.4695 103.791Z"
            fill="#D02E2F" />
        <path
            d="M83.9136 139.38C84.8812 139.38 85.6656 138.439 85.6656 137.278C85.6656 136.116 84.8812 135.175 83.9136 135.175C82.946 135.175 82.1616 136.116 82.1616 137.278C82.1616 138.439 82.946 139.38 83.9136 139.38Z"
            fill="#D02E2F" />
        <path
            d="M111.014 193.916L116.347 191.243L117.352 193.588L124.096 194.951C124.429 195.018 124.732 195.19 124.96 195.442C125.188 195.693 125.33 196.011 125.365 196.349C125.4 196.687 125.326 197.028 125.154 197.321C124.981 197.614 124.72 197.844 124.408 197.978L117.892 200.771L115.775 198.933L116.331 201.44L113.874 202.493L111.014 193.916Z"
            fill="#2F2E41" />
        <path
            d="M116.234 178.042L121.519 175.276L122.566 177.603L129.332 178.847C129.666 178.909 129.972 179.075 130.205 179.323C130.438 179.571 130.585 179.886 130.626 180.223C130.667 180.561 130.599 180.902 130.432 181.198C130.265 181.494 130.007 181.729 129.697 181.868L123.232 184.775L121.083 182.975L121.682 185.472L119.245 186.568L116.234 178.042Z"
            fill="#2F2E41" />
        <path
            d="M67.5813 91.1885C65.5932 91.1918 63.6528 90.5796 62.0265 89.4361L61.9722 89.398V89.3318C61.9744 87.4087 62.7393 85.5651 64.0991 84.2053C65.4589 82.8455 67.3025 82.0806 69.2256 82.0784H72.2797C74.2027 82.0806 76.0464 82.8455 77.4062 84.2053C78.766 85.5651 79.5309 87.4087 79.5331 89.3318C79.5311 89.772 79.3573 90.1939 79.0488 90.5078C78.7402 90.8217 78.3214 91.0028 77.8813 91.0124L67.7529 91.187C67.6957 91.188 67.6383 91.1885 67.5813 91.1885Z"
            fill="#2F2E41" />
        <path
            d="M80.0423 87.9388C81.0162 87.3765 81.1789 85.8353 80.4058 84.4962C79.6327 83.1572 78.2166 82.5275 77.2428 83.0898C76.2689 83.652 76.1062 85.1933 76.8793 86.5323C77.6524 87.8713 79.0685 88.501 80.0423 87.9388Z"
            fill="#2F2E41" />
        <path
            d="M64.8116 86.4449C65.9049 85.3516 66.1467 83.8207 65.3515 83.0256C64.5564 82.2304 63.0255 82.4721 61.9322 83.5654C60.8389 84.6587 60.5972 86.1896 61.3923 86.9848C62.1875 87.7799 63.7183 87.5382 64.8116 86.4449Z"
            fill="#2F2E41" />
        <path
            d="M131.412 155.249H123.9C123.731 155.249 123.563 155.285 123.41 155.356C123.256 155.427 123.119 155.531 123.01 155.661C122.733 155.61 122.448 155.625 122.178 155.706C121.908 155.787 121.661 155.93 121.457 156.125C121.254 156.319 121.099 156.559 121.006 156.825C120.913 157.091 120.885 157.375 120.923 157.655C120.961 157.934 121.065 158.2 121.226 158.431C121.387 158.662 121.601 158.852 121.849 158.984C122.098 159.117 122.374 159.189 122.656 159.194C122.938 159.199 123.216 159.137 123.47 159.013L124.093 161.038C124.166 161.278 124.315 161.488 124.517 161.637C124.719 161.786 124.963 161.866 125.214 161.866H130.098C130.349 161.866 130.593 161.786 130.795 161.637C130.997 161.488 131.146 161.278 131.219 161.038L132.533 156.768C132.587 156.592 132.599 156.407 132.569 156.225C132.538 156.044 132.465 155.873 132.356 155.725C132.247 155.578 132.104 155.458 131.94 155.375C131.776 155.292 131.595 155.249 131.412 155.249ZM122.693 158.685C122.356 158.685 122.032 158.551 121.793 158.312C121.555 158.074 121.421 157.75 121.421 157.412C121.421 157.075 121.555 156.751 121.793 156.513C122.032 156.274 122.356 156.14 122.693 156.14C122.716 156.14 122.738 156.145 122.761 156.147C122.71 156.351 122.717 156.566 122.779 156.768L123.316 158.515C123.127 158.625 122.912 158.683 122.693 158.685Z"
            fill="#3F3D56" />
        <path
            d="M97.8713 149.724C97.3583 149.772 96.8412 149.706 96.3564 149.532C95.8716 149.358 95.4308 149.08 95.0651 148.717C94.6994 148.354 94.4178 147.916 94.2399 147.432C94.0621 146.949 93.9924 146.432 94.0357 145.919L68.9824 132.493L74.4622 128.985L98.0989 142.692C98.9564 142.822 99.7363 143.262 100.291 143.929C100.846 144.596 101.137 145.443 101.109 146.309C101.08 147.176 100.735 148.003 100.139 148.632C99.5421 149.261 98.7353 149.65 97.8713 149.724Z"
            fill="#FFB6B6" />
        <path
            d="M65.073 107.821C65.073 107.821 60.6023 107.261 59.4548 112.29C58.3074 117.319 66.1727 131.339 67.3728 133.637C68.5729 135.934 84.9294 140.959 84.9294 140.959L91.2277 137.67L77.1253 128.732L65.073 107.821Z"
            fill="#D02E2F" />
        <path
            d="M96.5852 87.0413H98.1123C98.8547 87.0413 99.5668 87.3362 100.092 87.8612C100.617 88.3863 100.912 89.0983 100.912 89.8408H93.7856C93.7856 89.0983 94.0806 88.3863 94.6056 87.8612C95.1306 87.3362 95.8427 87.0413 96.5852 87.0413Z"
            fill="#CCCCCC" />
        <path
            d="M48.163 34.8077C56.5182 34.8077 63.2914 28.0345 63.2914 19.6794C63.2914 11.3242 56.5182 4.55103 48.163 4.55103C39.8079 4.55103 33.0347 11.3242 33.0347 19.6794C33.0347 28.0345 39.8079 34.8077 48.163 34.8077Z"
            fill="#FF6584" />
        <path
            d="M94.4826 18.8909C90.479 14.691 85.8291 10.8595 80.3245 8.83476C78.7912 8.26838 77.2013 7.86885 75.5824 7.64308C75.5694 7.6413 75.5571 7.64394 75.5441 7.64289C75.5178 7.6361 75.4911 7.63086 75.4641 7.62719C73.1999 7.33874 70.9017 7.47749 68.6886 8.03624C67.6064 8.30782 66.5506 8.67562 65.5338 9.13524C64.5135 9.63301 63.5249 10.1933 62.5736 10.8129C60.56 12.0182 58.3431 12.8452 56.0321 13.2532C54.8721 13.4621 53.6972 13.5774 52.5188 13.5981C51.4962 13.6186 50.5319 13.6541 49.5631 14.0235C48.5282 14.4127 47.5986 15.0383 46.8485 15.8506C46.0984 16.6628 45.5485 17.6391 45.2427 18.7016C45.2191 18.7962 45.2262 18.8959 45.2629 18.9862C45.2997 19.0765 45.3642 19.1528 45.4471 19.2041C45.7092 19.3918 45.9647 19.6047 46.24 19.772C46.485 19.8841 46.7466 19.9554 47.0145 19.9832C47.4523 20.0756 47.8906 20.1652 48.3295 20.2522C49.9463 20.5726 51.5698 20.8561 53.2001 21.1029C56.4989 21.6023 59.8155 21.9541 63.1499 22.1582C69.8296 22.5628 76.5323 22.3614 83.1757 21.5564C86.9094 21.1041 90.6176 20.4627 94.2863 19.6346C94.3606 19.6129 94.428 19.5724 94.482 19.517C94.536 19.4615 94.5747 19.3931 94.5945 19.3182C94.6142 19.2434 94.6143 19.1648 94.5947 19.0899C94.5751 19.015 94.5365 18.9465 94.4826 18.8909Z"
            fill="#E6E6E6" />
        <path
            d="M48.8811 29.0059C47.3478 28.4395 45.7579 28.04 44.139 27.8142C44.126 27.8124 44.1137 27.8151 44.1007 27.814C44.0744 27.8072 44.0477 27.802 44.0208 27.7983C41.7565 27.5099 39.4583 27.6486 37.2452 28.2074C36.163 28.479 35.1072 28.8468 34.0905 29.3064C33.0701 29.8042 32.0815 30.3644 31.1302 30.984C29.1167 32.1893 26.8997 33.0164 24.5888 33.4244C23.4288 33.6332 22.2539 33.7485 21.0754 33.7692C20.0529 33.7897 19.0886 33.8252 18.1198 34.1947C17.0849 34.5838 16.1553 35.2095 15.4051 36.0217C14.655 36.8339 14.1051 37.8102 13.7993 38.8727C13.7757 38.9673 13.7828 39.067 13.8196 39.1573C13.8563 39.2476 13.9208 39.3239 14.0038 39.3752C14.2658 39.5629 14.5213 39.7759 14.7967 39.9431C15.0416 40.0552 15.3032 40.1265 15.5712 40.1543C16.0089 40.2467 16.4472 40.3364 16.8861 40.4233C18.5029 40.7437 20.1265 41.0273 21.7567 41.274C25.0555 41.7734 28.3721 42.1252 31.7065 42.3293C38.3863 42.734 45.0889 42.5325 51.7324 41.7275C55.466 41.2753 59.1743 40.6339 62.8429 39.8058C62.9172 39.784 62.9846 39.7435 63.0386 39.6881C63.0926 39.6326 63.1314 39.5642 63.1511 39.4894C63.1709 39.4145 63.171 39.3359 63.1514 39.261C63.1318 39.1862 63.0932 39.1176 63.0393 39.0621C59.0356 34.8621 54.3857 31.0306 48.8811 29.0059Z"
            fill="#E6E6E6" />
        <path d="M157.978 141.785L146.344 126.502L137.165 131.692L156.617 154.792L157.978 141.785Z" fill="#3F3D56" />
        <path
            d="M184.777 116.941C185.035 123.346 186.028 129.7 187.734 135.879C187.368 136.741 186.989 137.598 186.599 138.449C185.122 141.672 183.469 144.81 181.646 147.851C176.535 156.388 170.154 164.099 162.724 170.718C161.92 171.433 161.104 172.136 160.278 172.828C155.567 166.333 153.025 159.166 152.019 151.79C151.892 150.854 151.788 149.907 151.709 148.965V148.96C151.516 146.672 151.454 144.374 151.523 142.078C151.526 141.895 151.531 141.709 151.538 141.523C151.627 139.07 151.849 136.611 152.182 134.176V134.173C152.22 133.893 152.259 133.613 152.302 133.333C152.424 132.494 152.561 131.654 152.712 130.819C153.585 126.004 154.805 121.259 156.361 116.62V116.617C156.404 116.483 156.448 116.35 156.496 116.218C156.664 115.714 156.835 115.215 157.01 114.716C157.021 114.677 157.035 114.639 157.051 114.602C157.277 113.95 157.509 113.304 157.746 112.662C157.809 112.484 157.876 112.306 157.944 112.128C158.211 111.413 158.484 110.703 158.761 110.003C158.848 109.779 158.937 109.555 159.026 109.333C159.095 109.163 159.161 108.992 159.232 108.824V108.822C159.637 107.822 160.046 106.841 160.461 105.88C161.624 103.177 162.821 100.634 163.986 98.2905L163.989 98.2879C168.827 88.5836 173.225 82.282 173.225 82.282L189.74 87.6266C187.77 91.121 186.245 96.2748 185.411 102.355C184.767 107.188 184.555 112.068 184.777 116.938L184.777 116.941Z"
            fill="#3F3D56" />
        <path
            d="M157.328 115.386C157.232 115.159 157.122 114.938 157.01 114.716C156.43 113.592 155.682 112.563 154.794 111.662C154.661 111.527 154.524 111.392 154.381 111.265C152.848 109.853 150.984 108.85 148.961 108.349C146.938 107.849 144.821 107.866 142.806 108.399L142.796 108.405L142.72 108.425L142.738 108.511C142.814 108.915 142.925 109.311 143.068 109.695C143.107 109.799 143.15 109.898 143.193 109.998C143.211 110.044 143.234 110.084 143.254 110.13C143.254 110.13 143.252 110.133 143.257 110.133C143.257 110.135 143.259 110.138 143.259 110.14C143.308 110.234 143.354 110.331 143.404 110.423C143.3 110.324 143.201 110.222 143.104 110.117C143.01 110.021 142.923 109.919 142.837 109.817C142.54 109.471 142.272 109.102 142.035 108.712L141.994 108.644L141.923 108.672C140.963 109.005 140.047 109.453 139.195 110.008L139.103 110.069C138.453 110.496 137.72 110.781 136.952 110.907C136.185 111.032 135.399 110.995 134.647 110.797C133.461 110.491 132.224 110.435 131.015 110.633C129.806 110.83 128.652 111.277 127.625 111.945C126.945 112.388 126.33 112.924 125.798 113.538C125.752 113.591 125.706 113.647 125.66 113.701C125.564 113.818 125.472 113.938 125.383 114.06C124.426 115.338 123.839 116.855 123.685 118.445L123.68 118.503L123.729 118.536C124.59 119.127 125.564 119.532 126.589 119.728C125.945 119.817 125.293 119.834 124.645 119.776H124.642C124.348 119.752 124.056 119.711 123.767 119.654L123.713 119.644H123.711L123.645 119.631L123.655 119.753C123.731 121.308 124.22 122.815 125.072 124.118L125.098 124.153C125.107 124.166 125.116 124.18 125.123 124.194C125.484 124.746 125.785 125.336 126.019 125.953C126.614 127.485 126.745 129.159 126.396 130.765C126 132.484 126.132 134.281 126.773 135.924C127.414 137.566 128.535 138.977 129.989 139.974C131.267 140.853 132.756 141.375 134.303 141.488C134.515 141.506 134.728 141.516 134.942 141.516C136.166 141.52 137.377 141.267 138.498 140.775L138.538 140.76L138.548 140.714C138.764 140.019 139.067 139.353 139.449 138.734C139.324 139.222 139.261 139.724 139.261 140.228V140.396L139.406 140.312C139.531 140.238 139.658 140.159 139.773 140.086C140.46 139.637 141.083 139.095 141.623 138.477C141.834 138.233 142.048 137.996 142.272 137.759L142.274 137.757C142.71 137.294 143.17 136.841 143.649 136.408C144.667 135.494 145.756 134.662 146.906 133.921C148.056 133.183 149.258 132.53 150.503 131.967H150.505C150.645 131.901 150.788 131.837 150.928 131.776C151.547 131.506 152.144 131.186 152.712 130.819C152.732 130.806 152.75 130.796 152.768 130.783C155.228 129.172 157.037 126.741 157.872 123.921C158.707 121.101 158.515 118.077 157.328 115.386Z"
            fill="#D02E2F" />
        <path opacity="0.15"
            d="M126.815 134.379C126.746 134.688 126.693 135.001 126.657 135.317C126.184 133.819 126.115 132.223 126.458 130.691C126.511 130.456 126.551 130.219 126.582 129.98C127.052 131.399 127.133 132.918 126.815 134.379Z"
            fill="black" />
        <path opacity="0.15"
            d="M127.008 123.339C126.254 123.444 125.489 123.447 124.734 123.35C124.537 122.977 124.366 122.591 124.224 122.193C125.064 122.761 126.011 123.15 127.008 123.339Z"
            fill="black" />
        <path opacity="0.15"
            d="M124.674 119.694C124.395 120.406 124.21 121.15 124.123 121.91C123.891 121.187 123.754 120.436 123.716 119.678L123.709 119.556L123.83 119.579C124.109 119.632 124.39 119.67 124.674 119.694Z"
            fill="black" />
        <path opacity="0.15"
            d="M127.69 111.869C128.716 111.201 129.87 110.753 131.078 110.555C132.287 110.357 133.523 110.413 134.708 110.72C135.461 110.919 136.247 110.957 137.015 110.832C137.783 110.706 138.517 110.421 139.167 109.993L139.259 109.933C140.11 109.377 141.026 108.927 141.986 108.593L142.059 108.568L142.099 108.634C142.479 109.262 142.939 109.837 143.467 110.346C143.146 109.748 142.921 109.103 142.801 108.434L142.784 108.346L142.871 108.323C144.76 107.823 146.741 107.777 148.652 108.188C150.563 108.599 152.35 109.457 153.866 110.69C155.383 111.923 156.586 113.498 157.379 115.284C158.171 117.071 158.53 119.02 158.425 120.972C158.024 119.381 157.312 117.885 156.329 116.571C155.345 115.257 154.111 114.151 152.698 113.318C151.284 112.485 149.719 111.94 148.093 111.716C146.468 111.491 144.814 111.592 143.227 112.012L143.14 112.035L143.158 112.123C143.278 112.791 143.503 113.436 143.824 114.034C143.296 113.526 142.836 112.95 142.456 112.323L142.416 112.256L142.342 112.282C141.382 112.615 140.467 113.065 139.616 113.621L139.524 113.682C138.873 114.109 138.14 114.395 137.372 114.52C136.604 114.645 135.817 114.607 135.065 114.408C133.095 113.897 131.008 114.085 129.161 114.94C127.314 115.796 125.821 117.265 124.936 119.098C124.542 118.909 124.16 118.695 123.792 118.459L123.742 118.428L123.748 118.369C123.875 117.059 124.295 115.794 124.977 114.669C125.66 113.544 126.587 112.587 127.69 111.869Z"
            fill="black" />
        <path
            d="M222.307 46.8394L222.065 46.6791L221.889 46.9081C220.53 48.6193 219.449 50.5337 218.685 52.5811C218.79 50.2225 219.203 47.8876 219.912 45.6356L219.988 45.3989L219.769 45.2742C216.922 43.6617 213.887 42.4036 210.734 41.5279L210.391 41.4362C207.974 40.7731 205.724 39.6081 203.788 38.0171C201.852 36.4262 200.273 34.445 199.154 32.2027C196.554 27.0568 192.446 22.8262 187.379 20.0754C182.312 17.3247 176.526 16.1848 170.794 16.8076H170.792C170.731 16.8127 170.667 16.8204 170.606 16.828C170.502 16.8382 170.4 16.8509 170.298 16.8636C170.089 16.8916 169.886 16.9196 169.682 16.9502C169.509 16.9756 169.334 17.0036 169.161 17.0341C169.069 17.0469 168.98 17.0621 168.891 17.08C168.802 17.0952 168.71 17.1105 168.621 17.1283H168.618C166.91 17.4515 165.235 17.9329 163.615 18.5663H163.612V18.5688L163.203 18.7291C162.78 18.9022 162.361 19.0855 161.945 19.2789C161.851 19.3221 161.759 19.368 161.665 19.4112C161.64 19.4239 161.612 19.4367 161.586 19.4519C161.319 19.5792 161.054 19.7115 160.792 19.8515C160.754 19.8693 160.716 19.8897 160.678 19.9101L160.433 20.0399C159.896 20.33 159.369 20.6379 158.85 20.9637C158.807 20.9892 158.766 21.0146 158.723 21.0426C158.677 21.0732 158.629 21.1037 158.583 21.1342C158.555 21.1495 158.527 21.1699 158.499 21.1877C158.42 21.236 158.344 21.2869 158.268 21.3404C158.115 21.4396 157.962 21.5414 157.812 21.6458C157.657 21.7501 157.504 21.8596 157.351 21.969L157.199 22.0785L157.227 22.2668C157.252 22.422 157.275 22.5773 157.303 22.73C157.329 22.8827 157.354 23.0329 157.382 23.183C157.425 23.435 157.474 23.6844 157.522 23.9262C157.555 24.0865 157.586 24.2443 157.621 24.3996C157.654 24.5599 157.69 24.7202 157.728 24.8806C157.802 25.2114 157.881 25.5321 157.965 25.8477C158.006 26.0055 158.049 26.1633 158.095 26.3185C158.12 26.4127 158.145 26.5069 158.173 26.5985C158.194 26.6621 158.214 26.7257 158.235 26.7894C158.24 26.8097 158.245 26.8326 158.252 26.8555C158.258 26.8771 158.265 26.8983 158.273 26.9192C158.301 27.0133 158.329 27.105 158.357 27.194C158.372 27.2424 158.387 27.2907 158.405 27.3366C158.441 27.446 158.479 27.558 158.517 27.6649C158.558 27.787 158.601 27.9092 158.644 28.0288C158.654 28.0594 158.665 28.0874 158.675 28.1179C158.682 28.1408 158.69 28.1637 158.7 28.1866C158.71 28.2121 158.721 28.2401 158.731 28.2655C158.774 28.38 158.817 28.4971 158.863 28.6116C158.878 28.6524 158.894 28.6956 158.912 28.7363C159.324 29.7732 159.831 30.7699 160.426 31.7141C159.767 31.1491 159.132 30.5501 158.522 29.9173C157.58 28.9387 156.713 27.8915 155.926 26.7843C155.863 26.6977 155.799 26.6087 155.74 26.5196C155.621 26.3491 155.504 26.1786 155.389 26.0055C155.267 25.8273 155.15 25.6415 155.035 25.4583C154.959 25.3361 154.883 25.2114 154.809 25.0893C154.735 24.9722 154.666 24.8577 154.6 24.7406L154.402 24.3996H154.399V24.4021L154.119 24.677C154.007 24.7864 153.895 24.8958 153.786 25.0053C150.365 28.447 147.887 32.7109 146.591 37.387L146.553 37.527L146.515 37.6721C146.441 37.9317 146.367 38.1836 146.288 38.4407V38.4432C146.212 38.6977 146.13 38.9522 146.044 39.2016C145.965 39.4383 145.883 39.6725 145.797 39.9066C145.769 39.9855 145.738 40.0644 145.705 40.1433C145.652 40.296 145.593 40.4462 145.535 40.5989C145.507 40.6676 145.479 40.7389 145.451 40.8076C145.382 40.9756 145.313 41.1435 145.245 41.309C145.234 41.3344 145.222 41.3624 145.209 41.3879C145.189 41.4388 145.166 41.4897 145.145 41.538C145.092 41.6602 145.036 41.7849 144.982 41.907C144.944 41.9859 144.909 42.0674 144.873 42.1463C144.858 42.1819 144.84 42.2175 144.825 42.2532C144.73 42.4568 144.634 42.6578 144.532 42.8564C144.417 43.0905 144.3 43.3247 144.176 43.5537C144.066 43.7675 143.952 43.9762 143.832 44.1849C143.626 44.5539 143.41 44.9204 143.186 45.2767C143.099 45.4142 143.013 45.5516 142.923 45.689C142.903 45.7221 142.883 45.7552 142.862 45.7857C142.789 45.9054 142.712 46.0199 142.633 46.137C142.58 46.2159 142.526 46.2948 142.473 46.3711C142.384 46.5085 142.29 46.6409 142.193 46.7707C142.168 46.8114 142.14 46.8496 142.112 46.8878C141.969 47.0863 141.827 47.2797 141.681 47.4731C141.676 47.4757 141.676 47.4782 141.674 47.4808C141.669 47.4808 141.669 47.4833 141.666 47.4858C141.603 47.5698 141.539 47.6538 141.473 47.7353C141.386 47.8549 141.292 47.972 141.198 48.0865C141.045 48.2799 140.885 48.4759 140.722 48.6668C140.717 48.6718 140.714 48.6769 140.709 48.6795C139.866 49.6703 138.952 50.5991 137.976 51.4587C137.958 51.474 137.945 51.4892 137.927 51.502C137.79 51.6216 137.653 51.7412 137.51 51.8583C137.452 51.9066 137.393 51.955 137.334 52.0033C137.238 52.0848 137.139 52.1662 137.042 52.24C137.03 52.2517 137.018 52.262 137.004 52.2706C136.917 52.3418 136.833 52.408 136.747 52.4742C136.642 52.5582 136.538 52.6371 136.431 52.716C135.927 53.0977 135.41 53.4583 134.878 53.7976C134.8 53.8511 134.716 53.9045 134.634 53.9554C134.586 53.986 134.537 54.0165 134.492 54.0419C134.298 54.1616 134.105 54.2786 133.911 54.3906C133.718 54.5051 133.519 54.6146 133.323 54.7215C132.904 54.9505 132.489 55.1898 132.084 55.4392C131.88 55.5664 131.677 55.6937 131.476 55.8235C130.677 56.3427 129.907 56.8984 129.167 57.4905C128.428 58.083 127.718 58.7124 127.042 59.3764C126.958 59.4578 126.874 59.5418 126.79 59.6284C126.622 59.7938 126.459 59.9618 126.304 60.1297C126.055 60.3868 125.816 60.6515 125.579 60.9187C124.331 62.3349 123.226 63.8711 122.28 65.5049C121.806 66.3207 121.374 67.1609 120.988 68.022C120.695 68.6659 120.428 69.3251 120.186 69.9919C120.025 70.4372 119.875 70.8869 119.735 71.3407C119.667 71.5673 119.6 71.7963 119.537 72.0254C119.321 72.8016 119.14 73.5855 118.992 74.3719C118.873 75.0031 118.776 75.6351 118.702 76.268C118.664 76.5861 118.633 76.9043 118.605 77.2198C118.54 77.9955 118.506 78.7719 118.505 79.5491C118.5 81.8807 118.784 84.2039 119.349 86.4661C119.473 86.9649 119.611 87.4612 119.763 87.9549C119.84 88.2018 119.921 88.4461 120.003 88.6905C120.209 89.3013 120.437 89.9062 120.687 90.5051C120.837 90.8639 120.995 91.2203 121.161 91.574C122.212 93.823 123.554 95.9245 125.151 97.8247C125.413 98.1377 125.684 98.4457 125.963 98.7486C125.966 98.7486 125.963 98.7511 125.963 98.7511C126.656 99.5065 127.389 100.224 128.16 100.899H128.162C128.47 101.171 128.783 101.435 129.101 101.691C129.104 101.688 129.104 101.691 129.104 101.691C129.424 101.95 129.748 102.2 130.078 102.441C130.244 102.561 130.412 102.681 130.582 102.8C130.916 103.037 131.256 103.265 131.603 103.485H131.606C131.952 103.709 132.303 103.923 132.659 104.126C133.374 104.536 134.107 104.92 134.861 105.269L134.988 105.328L135.118 105.269C136.326 104.725 137.571 104.269 138.844 103.902C139.124 103.821 139.406 103.747 139.686 103.676C140.394 103.5 141.106 103.353 141.824 103.233C141.125 103.584 140.45 103.981 139.803 104.422C139.302 104.76 138.808 105.129 138.312 105.536C138.146 105.671 137.981 105.811 137.816 105.954L137.403 106.31L137.92 106.48C138.108 106.542 138.297 106.603 138.485 106.659C138.742 106.74 138.996 106.814 139.246 106.883C139.79 107.035 140.339 107.17 140.89 107.287C141.025 107.315 141.157 107.343 141.292 107.371C141.554 107.422 141.819 107.473 142.084 107.519C142.094 107.522 142.106 107.523 142.117 107.524C142.392 107.57 142.669 107.613 142.944 107.651C143.455 107.725 143.967 107.784 144.478 107.827C144.534 107.834 144.59 107.837 144.649 107.84C144.774 107.85 144.896 107.86 145.021 107.868C145.295 107.885 145.573 107.898 145.85 107.908C145.871 107.908 145.888 107.911 145.909 107.911C146.049 107.916 146.189 107.921 146.329 107.924C146.329 107.924 146.329 107.926 146.331 107.924C146.471 107.926 146.611 107.929 146.751 107.929H147.525C147.67 107.929 147.815 107.931 147.963 107.931C148.166 107.931 148.372 107.934 148.576 107.936C148.63 107.936 148.685 107.939 148.741 107.939C149.067 107.944 149.393 107.952 149.719 107.959C149.739 107.959 149.76 107.962 149.78 107.962C150.106 107.972 150.431 107.982 150.757 107.997C150.828 108 150.9 108.002 150.974 108.008C151.287 108.02 151.6 108.036 151.913 108.053C152.002 108.058 152.093 108.066 152.185 108.071C152.422 108.084 152.661 108.099 152.898 108.117C153.038 108.125 153.175 108.135 153.315 108.147C153.88 108.191 154.442 108.239 155.007 108.295C155.196 108.31 155.384 108.331 155.572 108.351C156.076 108.405 156.582 108.463 157.089 108.527C157.316 108.552 157.542 108.583 157.769 108.613C157.794 108.616 157.82 108.618 157.845 108.623C158.125 108.662 158.403 108.7 158.683 108.74C158.866 108.766 159.049 108.794 159.232 108.822C159.421 108.85 159.609 108.878 159.797 108.911C159.899 108.926 160.001 108.944 160.105 108.962C160.35 109 160.596 109.041 160.843 109.087C160.866 109.089 160.888 109.092 160.909 109.097C161.434 109.188 161.961 109.285 162.485 109.389C162.793 109.448 163.098 109.509 163.404 109.573C163.643 109.621 163.882 109.672 164.121 109.723C164.162 109.731 164.203 109.741 164.243 109.751C164.253 109.754 164.262 109.755 164.271 109.756C164.633 109.835 164.997 109.916 165.358 110.003C166.613 110.293 167.866 110.615 169.117 110.97C169.405 111.049 169.692 111.133 169.98 111.217C170.102 111.252 170.222 111.288 170.341 111.324C170.591 111.398 170.838 111.471 171.087 111.55C171.306 111.616 171.527 111.685 171.746 111.756C171.884 111.8 172.021 111.843 172.159 111.889C172.372 111.955 172.586 112.024 172.797 112.097C172.978 112.153 173.156 112.212 173.334 112.276C173.589 112.36 173.846 112.446 174.101 112.538C174.174 112.563 174.251 112.589 174.324 112.617C174.635 112.724 174.945 112.833 175.256 112.947C175.559 113.057 175.862 113.169 176.162 113.281C176.371 113.36 176.579 113.436 176.786 113.518C177.017 113.607 177.249 113.696 177.478 113.787C177.809 113.917 178.142 114.049 178.473 114.184C178.778 114.307 179.081 114.431 179.387 114.561C179.443 114.584 179.501 114.607 179.557 114.632C179.822 114.742 180.087 114.856 180.349 114.971C180.519 115.042 180.687 115.116 180.855 115.19C181.588 115.51 182.32 115.842 183.052 116.185H183.054C183.512 116.401 183.978 116.607 184.446 116.803C184.556 116.849 184.665 116.895 184.777 116.938C184.963 117.017 185.151 117.091 185.34 117.167C185.462 117.216 185.584 117.264 185.709 117.31C185.889 117.381 186.073 117.45 186.256 117.516C186.449 117.587 186.64 117.658 186.836 117.725C186.905 117.75 186.973 117.773 187.045 117.798C187.271 117.875 187.498 117.951 187.727 118.025C187.75 118.033 187.773 118.04 187.798 118.048C188.037 118.124 188.277 118.201 188.518 118.272C188.537 118.279 188.557 118.285 188.577 118.29C188.836 118.368 189.101 118.445 189.363 118.519C189.75 118.626 190.14 118.727 190.529 118.822C190.6 118.839 190.671 118.857 190.743 118.872C190.951 118.923 191.158 118.972 191.366 119.017C191.588 119.068 191.812 119.114 192.033 119.16C192.257 119.206 192.481 119.252 192.702 119.292C192.822 119.315 192.942 119.338 193.059 119.359L193.372 119.412C193.588 119.45 193.804 119.483 194.023 119.519C194.029 119.519 194.035 119.519 194.041 119.521C194.288 119.56 194.532 119.595 194.779 119.626C195.016 119.659 195.253 119.687 195.489 119.715C195.538 119.72 195.589 119.725 195.639 119.73C195.835 119.753 196.031 119.776 196.227 119.794C196.283 119.799 196.339 119.804 196.395 119.809C196.589 119.827 196.782 119.845 196.976 119.857C197.014 119.862 197.054 119.865 197.093 119.865C197.266 119.88 197.439 119.893 197.612 119.901C197.734 119.911 197.854 119.916 197.976 119.924C198.039 119.926 198.101 119.929 198.164 119.931C198.332 119.941 198.5 119.946 198.671 119.952C198.877 119.959 199.083 119.964 199.287 119.969C199.533 119.974 199.783 119.977 200.03 119.977H200.035C200.277 119.977 200.521 119.974 200.763 119.969H200.854L201.122 119.962C201.259 119.959 201.396 119.954 201.531 119.949C201.791 119.939 202.048 119.926 202.305 119.911C202.407 119.906 202.511 119.898 202.613 119.893C202.659 119.89 202.707 119.885 202.753 119.883C202.913 119.873 203.071 119.862 203.231 119.85C203.397 119.837 203.565 119.822 203.73 119.804C203.944 119.784 204.158 119.761 204.372 119.738C204.54 119.72 204.708 119.7 204.873 119.679C204.895 119.677 204.917 119.674 204.939 119.669C205.099 119.651 205.26 119.631 205.418 119.608C205.606 119.582 205.792 119.554 205.978 119.527C205.998 119.524 206.016 119.521 206.036 119.519C206.357 119.468 206.68 119.417 207.003 119.359C207.342 119.297 207.68 119.231 208.016 119.163C208.141 119.137 208.263 119.109 208.388 119.084C208.456 119.068 208.528 119.056 208.594 119.04C208.698 119.018 208.8 118.995 208.902 118.969C208.92 118.967 208.94 118.962 208.958 118.959C209.1 118.928 209.24 118.893 209.383 118.857C209.668 118.788 209.948 118.717 210.228 118.641C210.353 118.61 210.477 118.577 210.597 118.544C210.632 118.534 210.668 118.524 210.701 118.514C211.218 118.369 211.73 118.215 212.238 118.053C212.462 117.982 212.684 117.908 212.905 117.829C213.381 117.666 213.853 117.495 214.32 117.315C214.445 117.269 214.57 117.218 214.694 117.17C214.878 117.096 215.061 117.022 215.242 116.948C215.404 116.88 215.567 116.811 215.733 116.74C215.814 116.707 215.896 116.671 215.977 116.635C216.221 116.528 216.466 116.419 216.708 116.31C216.87 116.233 217.031 116.159 217.191 116.083C217.446 115.961 217.698 115.836 217.95 115.711C218.013 115.678 218.074 115.645 218.135 115.615C218.296 115.533 218.456 115.449 218.619 115.368C218.876 115.23 219.133 115.093 219.387 114.95C219.474 114.905 219.558 114.856 219.645 114.808C219.925 114.65 220.202 114.49 220.477 114.327C221.085 113.963 221.685 113.583 222.276 113.187C222.424 113.09 222.571 112.988 222.716 112.889C222.991 112.701 223.261 112.507 223.531 112.314C223.559 112.293 223.584 112.273 223.612 112.255C223.747 112.156 223.882 112.057 224.017 111.955C224.297 111.744 224.574 111.53 224.852 111.311C224.857 111.308 224.864 111.301 224.872 111.296C224.997 111.197 225.122 111.097 225.244 110.998C225.623 110.69 225.997 110.377 226.364 110.054C226.544 109.899 226.722 109.738 226.898 109.578C227.03 109.458 227.163 109.339 227.292 109.216C227.555 108.97 227.812 108.725 228.066 108.476C228.193 108.354 228.318 108.226 228.445 108.099C228.57 107.972 228.697 107.845 228.822 107.715C228.865 107.672 228.909 107.626 228.952 107.58C229.079 107.445 229.206 107.308 229.334 107.173C229.443 107.056 229.55 106.934 229.659 106.811C229.843 106.608 230.028 106.404 230.209 106.198C230.219 106.186 230.229 106.175 230.24 106.165C230.25 106.152 230.26 106.142 230.268 106.132H230.265C233.964 101.854 236.713 96.8392 238.329 91.4195C239.945 85.9997 240.392 80.2986 239.64 74.6933C238.887 69.088 236.953 63.7064 233.965 58.9046C230.977 54.1028 227.003 49.9904 222.307 46.8394Z"
            fill="#D02E2F" />
        <g opacity="0.15">
            <path
                d="M170.792 16.8057C171.299 18.628 172.063 20.3692 173.059 21.9772C171.391 20.5442 169.9 18.9166 168.62 17.1291C169.339 16.993 170.063 16.8852 170.792 16.8057Z"
                fill="black" />
            <path
                d="M145.958 44.9889C144.074 46.017 142.313 47.255 140.708 48.6793C143.418 45.4745 145.399 41.7186 146.513 37.6721C146.526 37.6234 146.54 37.5745 146.553 37.5258L146.591 37.3881C147.93 32.5584 150.527 28.171 154.118 24.6746L154.4 24.3995L154.599 24.7394C155.7 26.611 157.017 28.3465 158.524 29.9102C156.215 36.424 151.723 41.8453 145.958 44.9889Z"
                fill="black" />
            <path
                d="M159.225 27.6532L159.187 27.7909C159.174 27.8396 159.161 27.8885 159.147 27.9371C159.073 28.205 158.994 28.4708 158.912 28.7354C158.107 26.6501 157.542 24.4799 157.227 22.2668L157.197 22.079L157.352 21.9687C159.288 20.5771 161.392 19.4336 163.613 18.5651C161.619 21.3077 160.133 24.3858 159.225 27.6532Z"
                fill="black" />
            <path
                d="M133.324 54.7239C134.991 53.8114 136.551 52.7162 137.976 51.4584C135.13 54.7717 133.09 58.699 132.016 62.9326C130.942 67.1661 130.863 71.5909 131.784 75.8602C132.706 80.1295 134.604 84.1274 137.33 87.5405C140.055 90.9536 143.534 93.6892 147.493 95.5331L147.622 95.5925L147.75 95.5345C149.889 94.5683 152.144 93.8836 154.459 93.4975C153.014 94.2334 151.667 95.1477 150.45 96.219L150.038 96.575L150.555 96.7455C151 96.893 151.446 97.0286 151.88 97.149C154.427 97.8584 157.06 98.2107 159.704 98.1959C171.717 98.1189 183.824 100.896 195.687 106.45C197.721 107.402 199.832 108.182 201.996 108.782C211.426 111.408 221.494 110.463 230.272 106.129C225.323 111.853 218.852 116.055 211.611 118.248C204.369 120.44 196.654 120.534 189.362 118.517C187.198 117.916 185.087 117.137 183.053 116.185C171.19 110.631 159.083 107.854 147.07 107.931C144.426 107.946 141.793 107.593 139.246 106.884C138.812 106.764 138.366 106.628 137.921 106.48L137.404 106.31L137.816 105.954C139.033 104.883 140.38 103.968 141.824 103.232C139.51 103.618 137.255 104.303 135.116 105.269L134.988 105.327L134.859 105.268C130.104 103.055 126.058 99.564 123.172 95.185C120.285 90.8061 118.673 85.7112 118.514 80.469C118.354 75.2269 119.655 70.0435 122.27 65.4975C124.885 60.9514 128.712 57.2215 133.324 54.7239Z"
                fill="black" />
        </g>
    </g>
    <defs>
        <clipPath id="clip0_26_233">
            <rect width="240" height="202.493" fill="white" />
        </clipPath>
    </defs>
</svg>