<svg width="539" height="418" viewBox="0 0 539 418" fill="none" xmlns="http://www.w3.org/2000/svg">
    <g clip-path="url(#clip0_5_220)">
        <path d="M340.995 416.937C340.995 416.937 332.733 396.625 357.518 381.391L340.995 416.937Z" fill="#E6E6E6" />
        <path d="M330.835 416.567C330.835 416.567 328.315 402.09 308.809 402.214L330.835 416.567Z" fill="#E6E6E6" />
        <path d="M517.172 416.937C517.172 416.937 506.257 390.102 539 369.976L517.172 416.937Z" fill="#E6E6E6" />
        <path d="M503.748 416.449C503.748 416.449 500.419 397.322 474.65 397.486L503.748 416.449Z" fill="#E6E6E6" />
        <path d="M313.034 116.192L302.255 110.473L303.061 110.045L313.84 115.764L313.034 116.192Z" fill="#CBCBCB" />
        <path d="M303.631 116.192L302.825 115.764L313.604 110.045L314.41 110.473L303.631 116.192Z" fill="#CBCBCB" />
        <path d="M223.406 71.8636L222.886 72.8776L225.931 74.4361L226.451 73.4222L223.406 71.8636Z" fill="#CBCBCB" />
        <path
            d="M286.538 105.457L280.477 102.355L280.997 101.341L287.058 104.443L286.538 105.457ZM274.416 99.2526L268.355 96.1503L268.876 95.1363L274.936 98.2386L274.416 99.2526ZM262.295 93.0482L256.234 89.9463L256.754 88.9323L262.815 92.0343L262.295 93.0482ZM250.174 86.8442L244.113 83.7422L244.633 82.7282L250.694 85.8302L250.174 86.8442ZM238.052 80.6401L231.991 77.5381L232.512 76.5242L238.572 79.6261L238.052 80.6401Z"
            fill="#CBCBCB" />
        <path d="M293.118 107.545L292.598 108.559L295.643 110.117L296.163 109.103L293.118 107.545Z" fill="#CBCBCB" />
        <path
            d="M63.208 148.125C63.208 148.481 63.1965 148.834 63.1734 149.184C63.0439 151.201 62.5335 153.177 61.6691 155.005C61.6624 155.021 61.6546 155.035 61.6479 155.05C61.6077 155.134 61.5664 155.219 61.5239 155.303C61.2669 155.82 60.9817 156.323 60.6696 156.809C59.2443 159.04 57.2907 160.886 54.9815 162.184C52.6723 163.482 50.0785 164.192 47.4294 164.251L47.5891 173.424L49.6719 172.329L50.0438 173.035L47.6048 174.318L47.903 191.355L47.9063 191.583L46.2959 191.941L46.2993 191.712L46.8063 164.252C44.674 164.222 42.569 163.768 40.6136 162.918C38.6582 162.069 36.8913 160.839 35.4154 159.302C35.3138 159.197 35.2133 159.089 35.115 158.982L35.1038 158.969C33.8742 157.63 32.8797 156.093 32.1623 154.423C32.178 154.441 32.1947 154.457 32.2104 154.475C30.589 150.688 30.4791 146.425 31.903 142.56C33.3269 138.695 36.177 135.52 39.869 133.686C39.9248 133.658 39.9818 133.631 40.0377 133.603C43.6898 131.846 47.8695 131.523 51.7484 132.7C55.6273 133.876 58.9222 136.465 60.9801 139.953C61.0784 140.118 61.1733 140.287 61.2649 140.456C62.5432 142.81 63.2112 145.447 63.208 148.125Z"
            fill="#E5E5E5" />
        <path
            d="M61.0341 155.058C72.7243 155.058 82.201 145.593 82.201 133.916C82.201 122.24 72.7243 112.774 61.0341 112.774C49.344 112.774 39.8673 122.24 39.8673 133.916C39.8673 145.593 49.344 155.058 61.0341 155.058Z"
            fill="#E5E5E5" />
        <path opacity="0.2"
            d="M45.4052 119.795C43.4308 124.408 43.163 129.572 44.6496 134.364C46.1362 139.156 49.2803 143.264 53.5201 145.954C57.7599 148.644 62.8192 149.741 67.7938 149.048C72.7684 148.354 77.3343 145.917 80.6754 142.171C79.4693 144.99 77.6642 147.512 75.385 149.565C73.1059 151.617 70.4073 153.15 67.4761 154.057C64.545 154.964 61.4514 155.224 58.4098 154.819C55.3681 154.413 52.4511 153.352 49.8608 151.709C47.2705 150.065 45.0689 147.879 43.4085 145.302C41.7481 142.724 40.6685 139.817 40.2447 136.781C39.8209 133.745 40.0629 130.654 40.954 127.721C41.845 124.788 43.3639 122.084 45.4052 119.795Z"
            fill="black" />
        <path
            d="M62.1792 192.814L60.0174 192.209L60.022 191.977L60.6698 156.809L60.7022 155.055L60.7028 155.004L60.8162 148.86L60.9801 139.954V139.953L61.0915 133.917H61.1511L61.2651 140.456L61.4135 148.968L61.5197 155.008V155.053L61.5242 155.302V155.303L61.7296 167.076L61.751 168.246L62.1753 192.58L62.1792 192.814Z"
            fill="#3F3D56" />
        <path d="M64.4588 165.641L60.9598 167.481L61.4475 168.406L64.9464 166.566L64.4588 165.641Z" fill="#3F3D56" />
        <path
            d="M335.419 65.4929C308.702 63.9153 281.906 64.3267 255.251 66.7238C242.404 67.8837 229.352 69.1366 216.742 71.9357C206.585 74.1903 194.797 78.0009 188.469 86.8765C187.143 88.6648 186.25 90.7352 185.859 92.9256C185.468 95.1161 185.59 97.3672 186.214 99.503C187.723 104.563 191.477 108.774 195.474 112.073C204.675 119.665 216.091 124.083 226.288 130.114C244.906 141.127 261.946 155.971 272.883 174.827C277.695 183.124 282.273 194.157 276.914 203.3C271.664 212.257 259.944 215.343 250.387 216.798C238.407 218.622 226.067 218.127 214.037 217.106C200.849 215.877 187.734 213.959 174.747 211.358C149.304 206.478 124.093 200.271 98.2963 197.448C85.3618 195.928 72.3183 195.552 59.3175 196.322C47.5763 197.113 35.7345 198.968 24.7045 203.197C16.205 206.455 7.14485 211.386 2.55372 219.608C-1.87192 227.533 -0.145778 236.673 4.6732 243.986C10.4714 252.784 19.5129 258.813 28.9131 263.22C39.616 268.237 51.0638 271.489 62.5262 274.255C68.3396 275.658 74.1845 276.926 80.0299 278.188C81.2493 278.451 81.7704 276.58 80.5466 276.316C68.7588 273.772 56.937 271.219 45.4419 267.536C34.8045 264.128 23.9186 259.762 15.2075 252.606C8.16016 246.816 1.45964 238.36 1.8756 228.745C2.29493 219.053 10.4367 212.285 18.4168 208.12C28.3896 202.914 39.7201 200.378 50.8227 199.053C63.5354 197.638 76.3559 197.464 89.1024 198.533C114.838 200.489 139.998 206.344 165.231 211.452C189.744 216.413 215.023 221.008 240.144 219.735C250.101 219.231 260.77 217.806 269.561 212.786C273.586 210.487 277.216 207.246 279.262 203.028C281.105 199.015 281.688 194.538 280.934 190.187C279.508 180.63 273.825 171.768 268.155 164.156C261.939 155.899 254.728 148.439 246.686 141.944C237.86 134.849 228.344 128.657 218.28 123.46C212.943 120.654 207.53 117.955 202.444 114.704C197.568 111.587 192.757 107.837 189.779 102.777C187.204 98.4011 186.731 93.4064 189.414 88.9679C192.128 84.4787 196.802 81.3478 201.413 79.0598C212.52 73.5473 225.434 72.0718 237.586 70.5597C263.68 67.3244 289.977 66.0148 316.264 66.6415C322.653 66.7916 329.038 67.0558 335.419 67.4341C336.668 67.5075 336.664 65.5661 335.419 65.4929Z"
            fill="black" />
        <path
            d="M318.47 3.26902L322.506 0.0451498C319.371 -0.300328 318.083 1.40745 317.556 2.75917C315.106 1.74335 312.44 3.07462 312.44 3.07462L320.514 6.00247C320.107 4.91575 319.398 3.96754 318.47 3.26902Z"
            fill="#3F3D56" />
        <path
            d="M298.886 13.4753L302.921 10.2514C299.786 9.90592 298.498 11.6137 297.971 12.9654C295.522 11.9496 292.855 13.2809 292.855 13.2809L300.93 16.2087C300.522 15.122 299.813 14.1738 298.886 13.4753Z"
            fill="#3F3D56" />
        <path
            d="M318.47 29.6351L322.506 26.4112C319.371 26.0658 318.083 27.7735 317.556 29.1253C315.106 28.1094 312.44 29.4407 312.44 29.4407L320.514 32.3686C320.107 31.2818 319.398 30.3336 318.47 29.6351Z"
            fill="#3F3D56" />
        <path
            d="M257.972 34.4115C264.687 34.4115 270.13 28.9743 270.13 22.2672C270.13 15.5601 264.687 10.1229 257.972 10.1229C251.257 10.1229 245.813 15.5601 245.813 22.2672C245.813 28.9743 251.257 34.4115 257.972 34.4115Z"
            fill="#FF6583" />
        <path
            d="M296.099 59.6895H236.452C236.378 59.6904 236.303 59.6845 236.229 59.6718L264.44 10.8679C264.612 10.5639 264.862 10.311 265.164 10.135C265.466 9.959 265.809 9.86627 266.159 9.86627C266.509 9.86627 266.852 9.959 267.154 10.135C267.456 10.311 267.706 10.5639 267.878 10.8679L286.81 43.618L287.716 45.1849L296.099 59.6895Z"
            fill="#D12F2F" />
        <path
            d="M329.307 59.69H277.719L287.715 45.1866L288.434 44.1414L301.46 25.2409C301.691 24.9517 301.98 24.7142 302.308 24.5439C302.636 24.3735 302.997 24.274 303.366 24.252C303.735 24.23 304.105 24.2858 304.451 24.416C304.798 24.5462 305.113 24.7477 305.376 25.0074C305.443 25.0812 305.506 25.1592 305.563 25.2409L329.307 59.69Z"
            fill="#D12F2F" />
        <path
            d="M244.21 171.623C249.863 174.445 253.305 178.173 253.305 182.261C253.305 191.069 237.349 198.209 217.666 198.209C209.108 198.209 201.257 196.858 195.113 194.609C201.639 197.867 211.111 199.918 221.657 199.918C241.34 199.918 257.297 192.778 257.297 183.97C257.297 178.992 252.197 174.547 244.21 171.623Z"
            fill="#F1F1F1" />
        <path
            d="M256.785 177.673C263.165 180.857 267.049 185.064 267.049 189.677C267.049 199.616 249.044 207.672 226.834 207.672C217.177 207.672 208.318 206.148 201.386 203.61C208.749 207.286 219.437 209.601 231.338 209.601C253.548 209.601 271.553 201.544 271.553 191.605C271.553 185.988 265.798 180.973 256.785 177.673Z"
            fill="#F1F1F1" />
        <path
            d="M239.397 174.287C243.38 176.276 245.805 178.902 245.805 181.783C245.805 187.988 234.563 193.018 220.696 193.018C215.293 193.088 209.919 192.23 204.807 190.482C209.405 192.777 216.078 194.222 223.508 194.222C237.375 194.222 248.617 189.192 248.617 182.987C248.617 179.479 245.024 176.348 239.397 174.287Z"
            fill="#F1F1F1" />
        <path
            d="M183.432 173.148C183.432 173.148 184.307 185.927 209.397 185.927C234.488 185.927 241.978 173.148 241.978 173.148H183.432Z"
            fill="#3F3D56" />
        <path
            d="M219.045 139.621C215.423 136.872 210.876 135.63 206.358 136.154C210.396 137.127 213.962 139.488 216.43 142.825C218.899 146.162 220.111 150.26 219.856 154.401C219.601 158.542 217.893 162.461 215.034 165.47C212.174 168.479 208.345 170.386 204.218 170.856C208.165 171.807 212.32 171.373 215.985 169.624C219.649 167.876 222.599 164.921 224.339 161.256C226.079 157.591 226.502 153.44 225.538 149.499C224.574 145.559 222.281 142.071 219.045 139.621Z"
            fill="#3F3D56" />
        <path d="M210.823 133.848H209.112V174.521H210.823V133.848Z" fill="#3F3D56" />
        <path
            d="M323.249 103.628L323.24 103.613L323.217 102.619L328.576 94.847L323.223 101.875L323.204 102.085L323.02 94.1415L327.649 86.0836L323.007 92.7459L323.056 76.2881L323.056 76.2333L323.054 76.2872L322.747 89.2582L318.528 83.9894L322.733 90.3756L322.641 97.4813L318.759 90.5464L322.627 98.526L322.575 102.477L322.434 113.424L322.423 114.242C322.781 114.244 323.135 114.238 323.485 114.224L323.242 103.709L323.249 103.628Z"
            fill="#CBCBCB" />
        <path
            d="M297.588 107.046L297.579 107.03L297.556 106.036L302.915 98.2644L297.563 105.293L297.543 105.503L297.36 97.5589L301.989 89.5011L297.347 96.1633L297.395 79.7055L297.395 79.6507L297.394 79.7045L297.086 92.6755L292.868 87.4067L297.073 93.793L296.981 100.899L293.098 93.9638L296.966 101.943L296.915 105.894L296.773 116.841L296.763 117.659C297.12 117.662 297.474 117.656 297.824 117.641L297.582 107.127L297.588 107.046Z"
            fill="#CBCBCB" />
        <path
            d="M310.133 96.2239L310.124 96.2082L310.101 95.2147L315.46 87.4427L310.108 94.471L310.088 94.681L309.905 86.7371L314.534 78.6793L309.892 85.3415L309.941 68.8837L309.94 68.8289L309.939 68.8828L309.631 81.8538L305.413 76.585L309.618 82.9712L309.526 90.0769L305.643 83.1421L309.511 91.1216L309.46 95.0727L309.318 106.019L309.308 106.837C309.665 106.84 310.019 106.834 310.37 106.819L310.127 96.305L310.133 96.2239Z"
            fill="#CBCBCB" />
        <path
            d="M98.2021 285.353C101.981 285.353 105.045 282.293 105.045 278.518C105.045 274.743 101.981 271.683 98.2021 271.683C94.4229 271.683 91.3593 274.743 91.3593 278.518C91.3593 282.293 94.4229 285.353 98.2021 285.353Z"
            fill="#D12F2F" />
        <path d="M463.446 404.683L457.111 407.034L445.017 383.746L454.367 380.276L463.446 404.683Z" fill="#FFB7B7" />
        <path
            d="M467.343 410.217L446.916 417.797L446.82 417.539C446.037 415.433 446.123 413.102 447.06 411.059C447.997 409.017 449.708 407.43 451.817 406.647L464.293 402.017L467.343 410.217Z"
            fill="#2F2E41" />
        <path d="M401.102 411.254L394.344 411.253L391.129 385.217L401.103 385.217L401.102 411.254Z" fill="#FFB7B7" />
        <path
            d="M402.275 417.797L380.484 417.796V417.521C380.484 415.274 381.378 413.119 382.968 411.531C384.559 409.942 386.716 409.049 388.965 409.049L402.275 409.05L402.275 417.797Z"
            fill="#2F2E41" />
        <path
            d="M432.043 230.679L429.838 226.275L411.096 235.635L411.647 239.489L408.064 244.169C408.064 244.169 402 247.473 403.103 258.485L404.205 268.946L405.583 282.436L395.937 315.747L390.976 359.794L387.393 395.308L404.757 394.482L420.743 336.669L448.856 398.887L468.149 393.931L441.69 332.264L438.382 306.386C438.382 306.386 440.587 292.622 430.114 283.261L431.767 278.306V272.2L437.28 243.068L432.043 230.679Z"
            fill="#2F2E41" />
        <path opacity="0.2" d="M432.558 293.635L420.431 336.581L421.054 336.757L433.182 293.811L432.558 293.635Z"
            fill="black" />
        <path d="M431.492 282.436H404.481V285.188H431.492V282.436Z" fill="#3F3D56" />
        <path
            d="M404.481 286.84C405.09 286.84 405.584 285.608 405.584 284.087C405.584 282.567 405.09 281.334 404.481 281.334C403.872 281.334 403.379 282.567 403.379 284.087C403.379 285.608 403.872 286.84 404.481 286.84Z"
            fill="#3F3D56" />
        <path
            d="M423.71 223.559C430.83 219.671 433.447 210.753 429.555 203.641C425.662 196.529 416.734 193.915 409.614 197.803C402.493 201.691 399.876 210.608 403.769 217.72C407.661 224.833 416.589 227.446 423.71 223.559Z"
            fill="#FFB7B7" />
        <path
            d="M439.146 205.441C446.325 205.441 452.145 199.628 452.145 192.458C452.145 185.287 446.325 179.474 439.146 179.474C431.967 179.474 426.148 185.287 426.148 192.458C426.148 199.628 431.967 205.441 439.146 205.441Z"
            fill="#2F2E41" />
        <path
            d="M455.642 191.067C456.155 192.787 456.305 194.595 456.083 196.376C455.861 198.157 455.271 199.873 454.352 201.415C453.432 202.958 452.203 204.293 450.741 205.336C449.279 206.38 447.616 207.109 445.857 207.478C444.099 207.848 442.283 207.849 440.524 207.481C438.765 207.114 437.101 206.387 435.638 205.345C434.174 204.303 432.943 202.97 432.022 201.429C431.101 199.888 430.509 198.172 430.285 196.392C431.216 199.515 433.289 202.174 436.093 203.842C438.896 205.509 442.225 206.063 445.418 205.392C448.611 204.722 451.435 202.876 453.329 200.223C455.223 197.569 456.049 194.301 455.642 191.067Z"
            fill="#2F2E41" />
        <path
            d="M404.289 206.606C403.907 209.962 404.645 213.35 406.387 216.245C408.129 219.14 410.778 221.381 413.924 222.619C417.07 223.858 420.537 224.026 423.788 223.096C427.039 222.167 429.893 220.192 431.907 217.479C433.92 214.765 434.982 211.464 434.927 208.087C434.871 204.71 433.702 201.445 431.601 198.799C429.5 196.152 426.583 194.272 423.303 193.449C420.024 192.626 416.564 192.907 413.46 194.248C410.893 192.18 407.71 192.821 405.123 195.003C402.197 197.471 401.329 199.166 399.059 203.224C401.291 203.537 402.057 206.293 404.289 206.606Z"
            fill="#2F2E41" />
        <path
            d="M458.3 250.743C458.135 255.092 457.809 263.653 457.809 264.09C457.809 264.551 451.311 277.989 448.504 283.773V283.776C448.304 284.184 448.125 284.553 447.967 284.879C447.75 285.327 447.408 285.705 446.983 285.966C446.558 286.227 446.067 286.36 445.568 286.351L433.3 286.131C432.626 286.119 431.982 285.848 431.503 285.374C431.024 284.899 430.748 284.259 430.731 283.585L429.362 229.676C429.358 229.498 429.389 229.321 429.454 229.155C429.519 228.99 429.616 228.839 429.74 228.712C429.865 228.584 430.013 228.483 430.177 228.414C430.341 228.345 430.517 228.309 430.695 228.309H446.516C447.185 228.309 447.839 228.498 448.405 228.852C448.971 229.207 449.426 229.714 449.717 230.315L457.31 246.006C458.022 247.481 458.362 249.107 458.3 250.743Z"
            fill="#D12F2F" />
        <path
            d="M430.517 279.886C427.369 277.98 424.541 275.593 422.135 272.81C416.545 266.53 413.145 258.609 412.447 250.235C411.823 243.071 413.246 237.745 416.677 234.406C421.038 230.162 426.973 230.779 427.224 230.807L427.49 230.838L431.511 234.236L430.373 235.58L426.775 232.538C425.673 232.483 421.177 232.472 417.892 235.681C414.868 238.635 413.627 243.48 414.202 250.083C414.867 258.056 418.095 265.6 423.406 271.589C425.697 274.236 428.382 276.514 431.368 278.345L430.517 279.886Z"
            fill="#D12F2F" />
        <path d="M453.346 259.405L431.911 263.802L432.029 264.377L453.464 259.979L453.346 259.405Z" fill="#3F3D56" />
        <path d="M439.218 228.297L438.631 228.321L440.023 262.389L440.61 262.365L439.218 228.297Z" fill="#3F3D56" />
        <path
            d="M458.3 250.743C458.135 255.092 457.809 263.653 457.809 264.09C457.809 264.551 451.311 277.989 448.504 283.773L453.737 253.426C453.939 252.259 454.448 251.166 455.212 250.259C455.977 249.353 456.968 248.665 458.085 248.267C458.261 249.08 458.333 249.912 458.3 250.743Z"
            fill="#3F3D56" />
        <path
            d="M426.151 314.341C426.615 313.745 426.941 313.054 427.109 312.318C427.276 311.582 427.279 310.818 427.119 310.081C426.959 309.343 426.639 308.649 426.181 308.049C425.723 307.448 425.139 306.955 424.47 306.604L425.534 294.854L418.542 292.467L417.274 309.082C416.758 310.243 416.687 311.554 417.074 312.764C417.462 313.975 418.28 315.002 419.374 315.65C420.468 316.298 421.763 316.523 423.012 316.282C424.261 316.04 425.378 315.35 426.151 314.341Z"
            fill="#FFB7B7" />
        <path
            d="M427.065 302.971L414.677 302.522L415.201 242.849C415.192 241.16 415.715 239.512 416.695 238.136C417.675 236.76 419.064 235.727 420.664 235.182C422.16 234.686 423.775 234.685 425.272 235.178C426.969 235.752 428.426 236.874 429.414 238.367C430.402 239.86 430.864 241.639 430.727 243.423L427.065 302.971Z"
            fill="#CBCBCB" />
        <path
            d="M535.743 418H288.926C288.754 418 288.589 417.932 288.468 417.81C288.346 417.689 288.278 417.525 288.278 417.353C288.278 417.181 288.346 417.017 288.468 416.895C288.589 416.774 288.754 416.706 288.926 416.706H535.743C535.915 416.706 536.08 416.774 536.201 416.895C536.323 417.017 536.391 417.181 536.391 417.353C536.391 417.525 536.323 417.689 536.201 417.81C536.08 417.932 535.915 418 535.743 418Z"
            fill="#CBCBCB" />
    </g>
    <defs>
        <clipPath id="clip0_5_220">
            <rect width="539" height="418" fill="white" />
        </clipPath>
    </defs>
</svg>