<svg width="330" height="208" viewBox="0 0 330 208" fill="none" xmlns="http://www.w3.org/2000/svg">
    <g clip-path="url(#clip0_1_313)">
        <path
            d="M195.815 6.38111C219.571 -6.32457 249.723 0.336362 265.709 22.8652L265.165 23.2511C249.376 1.00035 219.593 -5.57671 196.129 6.96932C194.135 8.03546 192.211 9.22608 190.367 10.5341C166.238 27.6408 160.531 61.1799 177.645 85.2988L177.101 85.6847C159.774 61.266 165.552 27.3093 189.981 9.9902C191.848 8.66618 193.796 7.46077 195.815 6.38111Z"
            fill="#E6E6E6" />
        <path
            d="M321.667 60.6898L243.53 54.6137C242.317 54.5179 241.191 53.9452 240.4 53.0211C239.609 52.0971 239.217 50.8971 239.31 49.6844L242.698 11.7366C242.793 10.5242 243.366 9.39927 244.291 8.60858C245.215 7.8179 246.416 7.42604 247.629 7.519L325.767 13.5951C326.98 13.6908 328.105 14.2636 328.896 15.1877C329.687 16.1117 330.079 17.3117 329.986 18.5244L326.599 56.4721C326.503 57.6846 325.93 58.8095 325.005 59.6002C324.081 60.3909 322.88 60.7827 321.667 60.6898Z"
            fill="#E6E6E6" />
        <path
            d="M303.21 52.1168C302.617 52.1168 302.022 52.0936 301.424 52.0473L250.927 48.1205C249.917 48.042 248.933 47.7655 248.03 47.3067C247.127 46.848 246.324 46.216 245.665 45.4468C245.007 44.6777 244.506 43.7864 244.192 42.8239C243.879 41.8615 243.758 40.8466 243.836 39.8374L244.988 25.0418C245.148 23.0043 246.111 21.1138 247.665 19.785C249.219 18.4563 251.236 17.7978 253.275 17.954L318.574 23.0318C320.612 23.1927 322.504 24.1551 323.833 25.708C325.162 27.2608 325.821 29.2773 325.665 31.3151C325.224 36.9694 322.669 42.2503 318.507 46.1054C314.346 49.9606 308.884 52.1069 303.21 52.1168Z"
            fill="white" />
        <path
            d="M317.012 34.7939L252.998 29.816C252.865 29.8057 252.735 29.7691 252.616 29.7086C252.497 29.648 252.39 29.5645 252.303 29.4629C252.216 29.3613 252.15 29.2436 252.109 29.1164C252.067 28.9893 252.052 28.8553 252.062 28.722C252.072 28.5887 252.109 28.4587 252.169 28.3395C252.23 28.2203 252.314 28.1142 252.415 28.0273C252.517 27.9404 252.635 27.8743 252.762 27.8329C252.889 27.7915 253.023 27.7755 253.156 27.7858L317.17 32.7636C317.303 32.774 317.433 32.8105 317.552 32.8711C317.672 32.9317 317.778 33.0152 317.865 33.1168C317.952 33.2184 318.018 33.3361 318.059 33.4633C318.101 33.5904 318.117 33.7244 318.106 33.8577C318.096 33.991 318.059 34.121 317.999 34.2402C317.938 34.3594 317.855 34.4655 317.753 34.5524C317.651 34.6393 317.534 34.7054 317.406 34.7468C317.279 34.7882 317.145 34.8042 317.012 34.7939Z"
            fill="#E6E6E6" />
        <path
            d="M290.432 36.7624L252.686 33.8272C252.417 33.8061 252.167 33.679 251.992 33.4738C251.816 33.2687 251.729 33.0023 251.75 32.7331C251.771 32.464 251.898 32.2142 252.103 32.0386C252.308 31.8631 252.575 31.7761 252.844 31.7969L290.59 34.7321C290.723 34.7424 290.853 34.7789 290.973 34.8394C291.092 34.9 291.198 34.9835 291.285 35.0851C291.372 35.1867 291.438 35.3044 291.48 35.4316C291.521 35.5588 291.537 35.6929 291.527 35.8263C291.517 35.9596 291.48 36.0896 291.419 36.2089C291.359 36.3281 291.275 36.4342 291.173 36.5211C291.072 36.6081 290.954 36.6741 290.827 36.7155C290.699 36.7569 290.565 36.7728 290.432 36.7624Z"
            fill="#E6E6E6" />
        <path
            d="M298.747 41.4444L252.374 37.8384C252.241 37.8281 252.111 37.7916 251.991 37.7311C251.872 37.6705 251.766 37.587 251.679 37.4854C251.592 37.3838 251.525 37.266 251.484 37.1389C251.442 37.0117 251.426 36.8776 251.437 36.7442C251.447 36.6109 251.484 36.4809 251.544 36.3616C251.605 36.2424 251.689 36.1363 251.79 36.0494C251.892 35.9624 252.01 35.8964 252.137 35.855C252.264 35.8136 252.399 35.7977 252.532 35.8081L298.905 39.4141C299.174 39.4352 299.424 39.5623 299.599 39.7675C299.775 39.9726 299.862 40.2391 299.841 40.5082C299.82 40.7773 299.693 41.0271 299.487 41.2027C299.282 41.3782 299.016 41.4652 298.747 41.4444Z"
            fill="#E6E6E6" />
        <path
            d="M316.439 112.203L238.301 106.127C237.088 106.032 235.963 105.459 235.171 104.535C234.38 103.611 233.988 102.411 234.081 101.198L237.469 63.2502C237.565 62.0378 238.138 60.9129 239.062 60.1222C239.986 59.3315 241.187 58.9397 242.4 59.0326L320.538 65.1088C321.751 65.2045 322.876 65.7772 323.667 66.7013C324.458 67.6253 324.85 68.8253 324.757 70.038L321.37 107.986C321.274 109.198 320.701 110.323 319.777 111.114C318.852 111.905 317.652 112.296 316.439 112.203Z"
            fill="#E6E6E6" />
        <path
            d="M297.961 103.63C297.377 103.63 296.788 103.607 296.196 103.561L245.698 99.6341C244.688 99.5556 243.704 99.2791 242.801 98.8204C241.898 98.3616 241.095 97.7296 240.436 96.9605C239.778 96.1913 239.278 95.3 238.964 94.3375C238.65 93.3751 238.529 92.3602 238.607 91.3509L239.759 76.5555C239.837 75.5462 240.114 74.5623 240.573 73.6599C241.032 72.7574 241.664 71.9542 242.434 71.296C243.203 70.6379 244.095 70.1377 245.058 69.824C246.021 69.5103 247.036 69.3892 248.046 69.4677L313.345 74.5456C314.355 74.6241 315.34 74.9006 316.242 75.3594C317.145 75.8181 317.949 76.4501 318.607 77.2193C319.266 77.9885 319.766 78.8797 320.08 79.8422C320.394 80.8047 320.515 81.8196 320.436 82.8288C319.989 88.4841 317.429 93.7639 313.264 97.618C309.1 101.472 303.637 103.618 297.961 103.63Z"
            fill="white" />
        <path
            d="M311.783 86.3075L247.77 81.3297C247.636 81.3193 247.506 81.2828 247.387 81.2222C247.268 81.1616 247.162 81.0781 247.075 80.9765C246.988 80.8749 246.922 80.7572 246.88 80.6301C246.839 80.5029 246.823 80.3689 246.833 80.2356C246.844 80.1023 246.88 79.9723 246.941 79.8531C247.001 79.7339 247.085 79.6279 247.187 79.5409C247.288 79.454 247.406 79.3879 247.533 79.3465C247.66 79.3051 247.794 79.2891 247.928 79.2995L311.941 84.2773C312.075 84.2876 312.205 84.3242 312.324 84.3848C312.443 84.4454 312.549 84.5288 312.636 84.6304C312.723 84.732 312.789 84.8497 312.831 84.9769C312.872 85.104 312.888 85.238 312.878 85.3713C312.867 85.5046 312.831 85.6346 312.77 85.7538C312.71 85.873 312.626 85.9791 312.524 86.066C312.423 86.1529 312.305 86.219 312.178 86.2604C312.051 86.3018 311.916 86.3178 311.783 86.3075Z"
            fill="#E6E6E6" />
        <path
            d="M285.203 88.276L247.458 85.3408C247.324 85.3306 247.194 85.2941 247.075 85.2335C246.955 85.1729 246.849 85.0895 246.762 84.9879C246.675 84.8862 246.609 84.7685 246.568 84.6413C246.526 84.5141 246.51 84.38 246.52 84.2467C246.531 84.1133 246.567 83.9833 246.628 83.8641C246.689 83.7448 246.772 83.6387 246.874 83.5518C246.976 83.4649 247.093 83.3988 247.221 83.3574C247.348 83.316 247.482 83.3001 247.616 83.3105L285.361 86.2457C285.63 86.2668 285.88 86.3939 286.056 86.5991C286.231 86.8042 286.318 87.0707 286.297 87.3398C286.276 87.6089 286.149 87.8587 285.944 88.0343C285.739 88.2098 285.472 88.2968 285.203 88.276Z"
            fill="#E6E6E6" />
        <path
            d="M293.518 92.958L247.145 89.352C246.876 89.331 246.626 89.204 246.45 88.9988C246.275 88.7936 246.188 88.5271 246.209 88.2578C246.23 87.9886 246.357 87.7387 246.562 87.5632C246.767 87.3876 247.034 87.3007 247.303 87.3217L293.676 90.9277C293.945 90.9486 294.195 91.0757 294.371 91.2809C294.547 91.4861 294.633 91.7526 294.613 92.0218C294.592 92.291 294.464 92.5409 294.259 92.7165C294.054 92.8921 293.787 92.9789 293.518 92.958Z"
            fill="#E6E6E6" />
        <path
            d="M117.679 92.3767C116.687 90.1299 116.147 87.7099 116.091 85.2548C116.035 82.7997 116.463 80.3576 117.351 78.0678C118.239 75.7781 119.57 73.6857 121.267 71.9099C122.964 70.1342 124.994 68.71 127.242 67.7185C129.49 66.7271 131.911 66.1879 134.367 66.1318C136.823 66.0756 139.266 66.5036 141.557 67.3912C143.848 68.2789 145.941 69.6088 147.718 71.3051C149.494 73.0014 150.919 75.0309 151.911 77.2776L151.3 77.547C150.344 75.3804 148.97 73.4233 147.257 71.7875C145.544 70.1517 143.525 68.8692 141.316 68.0132C139.107 67.1572 136.751 66.7445 134.382 66.7986C132.014 66.8528 129.679 67.3727 127.511 68.3288C125.344 69.2848 123.386 70.6582 121.749 72.3706C120.113 74.083 118.83 76.1008 117.973 78.3089C117.117 80.5169 116.704 82.8719 116.758 85.2395C116.813 87.607 117.333 89.9407 118.289 92.1073L117.679 92.3767Z"
            fill="#E6E6E6" />
        <path
            d="M311.599 196.665C319.238 193.047 324.927 185.767 324.04 177.767C317.187 183.314 307.857 186.411 298.225 186.337C294.474 186.308 290.272 185.927 287.546 188.031C285.85 189.34 285.085 191.419 284.988 193.491C284.891 195.563 285.394 197.66 285.893 199.73L285.741 200.22C294.71 200.791 303.96 200.283 311.599 196.665Z"
            fill="#F2F2F2" />
        <path
            d="M323.852 177.747C320.897 183.509 315.775 188.312 309.409 191.123C308.015 191.774 306.53 192.21 305.004 192.417C303.451 192.579 301.882 192.374 300.422 191.818C299.039 191.322 297.675 190.676 296.208 190.479C295.49 190.379 294.758 190.425 294.058 190.613C293.358 190.802 292.703 191.13 292.132 191.578C290.776 192.632 289.968 194.09 289.235 195.545C288.421 197.16 287.606 198.852 286.012 199.952C285.819 200.086 286.088 200.363 286.281 200.23C289.053 198.315 289.453 194.851 291.656 192.532C292.174 191.946 292.818 191.485 293.539 191.184C294.261 190.882 295.042 190.748 295.822 190.791C297.32 190.901 298.727 191.566 300.124 192.079C301.544 192.64 303.068 192.89 304.593 192.812C306.131 192.677 307.636 192.294 309.052 191.679C312.13 190.399 314.979 188.626 317.488 186.432C320.26 184.036 322.548 181.132 324.23 177.877C324.332 177.678 323.953 177.549 323.852 177.747Z"
            fill="white" />
        <path
            d="M311.542 190.311C312.346 191.259 313.426 191.934 314.631 192.24C315.836 192.546 317.107 192.469 318.267 192.02C318.489 191.926 318.308 191.601 318.085 191.694C317.006 192.114 315.823 192.186 314.701 191.899C313.579 191.612 312.576 190.98 311.832 190.094C311.676 189.904 311.387 190.122 311.542 190.311Z"
            fill="white" />
        <path
            d="M301.094 192.15C301.242 191.024 301.627 189.943 302.223 188.977C302.819 188.01 303.614 187.181 304.553 186.544C304.746 186.41 304.477 186.133 304.285 186.266C303.308 186.932 302.484 187.796 301.866 188.803C301.248 189.809 300.85 190.936 300.699 192.107C300.672 192.33 301.067 192.372 301.094 192.15Z"
            fill="white" />
        <path
            d="M319.807 183.791C319.439 183.509 319.15 183.138 318.967 182.712C318.783 182.287 318.711 181.822 318.758 181.362C318.789 181.139 318.393 181.098 318.363 181.319C318.314 181.828 318.394 182.341 318.595 182.811C318.797 183.282 319.114 183.693 319.516 184.009C319.553 184.044 319.6 184.067 319.651 184.072C319.702 184.078 319.753 184.066 319.796 184.039C319.814 184.024 319.83 184.006 319.841 183.985C319.852 183.964 319.858 183.941 319.859 183.917C319.86 183.894 319.856 183.87 319.847 183.848C319.838 183.827 319.824 183.807 319.807 183.791Z"
            fill="white" />
        <path
            d="M298.837 160.853C298.814 160.991 298.79 161.129 298.764 161.268C298.437 163.121 297.937 164.939 297.272 166.699C297.223 166.836 297.171 166.974 297.118 167.109C295.435 171.37 292.876 175.231 289.607 178.441C288.275 179.753 286.838 180.954 285.311 182.033C283.183 183.538 280.726 185.009 279.379 187.038C279.236 187.247 279.108 187.466 278.996 187.693L285.065 199.967C285.094 199.99 285.12 200.014 285.149 200.037L285.367 200.535C285.451 200.484 285.537 200.429 285.622 200.378C285.671 200.349 285.719 200.317 285.768 200.288C285.8 200.267 285.832 200.246 285.863 200.23C285.874 200.223 285.884 200.216 285.892 200.21C285.923 200.194 285.949 200.175 285.977 200.159C286.459 199.856 286.94 199.548 287.418 199.237C287.421 199.236 287.421 199.236 287.423 199.233C291.063 196.853 294.487 194.165 297.3 191.063C297.384 190.969 297.472 190.875 297.554 190.776C298.804 189.382 299.924 187.876 300.899 186.278C301.425 185.409 301.899 184.51 302.321 183.586C303.403 181.199 304.044 178.635 304.213 176.02C304.556 170.781 303.001 165.364 299.136 161.171C299.037 161.063 298.939 160.959 298.837 160.853Z"
            fill="#F2F2F2" />
        <path
            d="M298.682 160.936C300.372 167.416 299.79 174.25 296.928 180.065C296.333 181.356 295.513 182.531 294.506 183.536C293.428 184.524 292.102 185.201 290.67 185.497C289.298 185.822 287.839 186.009 286.608 186.633C286.004 186.935 285.479 187.376 285.078 187.92C284.677 188.464 284.411 189.095 284.3 189.761C283.999 191.386 284.381 193.058 284.818 194.687C285.302 196.496 285.837 198.37 285.39 200.162C285.336 200.38 285.725 200.47 285.779 200.253C286.558 197.135 284.511 193.982 284.59 190.827C284.626 189.355 285.163 187.92 286.53 187.105C287.726 186.391 289.23 186.198 290.623 185.88C292.031 185.607 293.35 184.993 294.466 184.093C295.529 183.145 296.401 182.003 297.037 180.729C298.493 177.921 299.429 174.873 299.799 171.732C300.244 168.088 299.991 164.392 299.053 160.843C298.995 160.619 298.624 160.714 298.682 160.936Z"
            fill="white" />
        <path
            d="M297.974 178.227C300.471 179.009 303.12 178.073 304.166 176.052C304.27 175.853 303.913 175.675 303.81 175.874C302.829 177.767 300.378 178.617 298.044 177.886C297.799 177.809 297.73 178.15 297.974 178.227Z"
            fill="white" />
        <path
            d="M291.398 185.417C290.758 184.453 290.322 183.369 290.114 182.231C289.907 181.093 289.933 179.925 290.191 178.798C290.244 178.58 289.855 178.49 289.802 178.707C289.536 179.881 289.512 181.097 289.73 182.281C289.949 183.464 290.405 184.591 291.073 185.593C291.204 185.797 291.528 185.62 291.398 185.417Z"
            fill="white" />
        <path
            d="M299.747 168.243C299.256 168.187 298.784 168.025 298.364 167.766C297.944 167.508 297.586 167.16 297.316 166.747C297.188 166.542 296.864 166.72 296.992 166.924C297.292 167.378 297.688 167.762 298.151 168.049C298.615 168.336 299.135 168.518 299.677 168.583C299.784 168.596 299.884 168.559 299.906 168.458C299.912 168.409 299.899 168.359 299.869 168.319C299.84 168.279 299.796 168.252 299.747 168.243Z"
            fill="white" />
        <path
            d="M311.721 109.518L307.078 84.8122L297.963 72.8208L291.209 77.235C292.163 82.4094 299.383 92.0693 299.383 92.0693L305.782 111.176C305.757 111.275 305.733 111.375 305.716 111.478C305.614 112.083 305.671 112.703 305.879 113.28C306.088 113.856 306.441 114.369 306.906 114.769C307.371 115.169 307.931 115.442 308.532 115.562C309.133 115.682 309.756 115.646 310.338 115.455C310.921 115.265 311.445 114.927 311.859 114.476C312.274 114.024 312.564 113.473 312.703 112.876C312.842 112.279 312.825 111.656 312.653 111.068C312.481 110.479 312.16 109.946 311.721 109.518Z"
            fill="#FFB8B8" />
        <path
            d="M291.39 79.8452L299.037 73.6411L299.052 73.6084C300.482 70.3688 297.307 64.8138 294.391 60.7243C293.428 59.3767 291.99 58.4446 290.366 58.1166C288.742 57.7886 287.054 58.0891 285.644 58.9573C284.607 59.6048 283.773 60.5292 283.235 61.6259C282.696 62.7225 282.476 63.9479 282.598 65.1633L283.241 71.3523L291.39 79.8452Z"
            fill="#3F3D56" />
        <path d="M264.364 202.794L259.276 202.793L256.855 183.176L264.365 183.177L264.364 202.794Z" fill="#FFB8B8" />
        <path
            d="M265.662 201.133L264.23 201.133L258.638 198.86L255.641 201.133H255.641C253.947 201.133 252.323 201.805 251.126 203.002C249.928 204.199 249.255 205.823 249.255 207.516V207.723L265.661 207.724L265.662 201.133Z"
            fill="#2F2E41" />
        <path d="M286.94 202.794L281.852 202.793L279.432 183.176L286.941 183.177L286.94 202.794Z" fill="#FFB8B8" />
        <path
            d="M288.238 201.133L286.806 201.133L281.215 198.86L278.218 201.133H278.218C276.524 201.133 274.9 201.805 273.702 203.002C272.505 204.199 271.832 205.823 271.832 207.516V207.723L288.238 207.724L288.238 201.133Z"
            fill="#2F2E41" />
        <path
            d="M294.699 118.296C294.699 118.296 295.293 125.423 293.808 132.252C292.322 139.082 292.322 158.316 292.322 158.316L289.055 195.796L279.252 194.905L276.578 132.252L267.072 153.335L267.963 156.304L266.776 157.046C266.776 157.046 267.666 162.836 267.072 162.836C266.478 162.836 264.993 163.727 264.993 163.727L266.181 194.311L256.081 194.014L252.516 150.959L256.378 126.314L256.675 121.563L258.012 121.618L258.692 119.633L259.943 116.218L294.699 118.296Z"
            fill="#2F2E41" />
        <path
            d="M295.212 119.793L295.265 119.719C298.093 115.762 293.84 106.253 293.199 104.875L295.9 103.999L295.292 98.8297L295.004 96.5252L297.069 94.4613L297.074 94.4099L298.263 84.0172L299.99 77.1145C300.641 74.505 300.586 71.7694 299.83 69.1884C299.073 66.6074 297.644 64.2741 295.687 62.428L291.694 58.6642L286.84 51.4861H279.014L276.33 56.5528C273.728 57.1539 271.42 58.6482 269.807 60.7756C268.194 62.9029 267.379 65.5284 267.504 68.1947L268.112 81.4832L265.731 98.0286L265.729 101.023L263.05 103.999L263.635 106.924L261.596 107.797L260.695 111.997C260.323 112.489 257.863 115.767 257.863 116.663C257.863 116.798 257.962 116.928 258.176 117.072C259.852 118.207 269.117 120.52 273.217 118.879C277.585 117.134 294.947 119.753 295.122 119.779L295.212 119.793Z"
            fill="#3F3D56" />
        <path
            d="M227.151 207.603C227.151 207.708 227.192 207.809 227.266 207.883C227.34 207.958 227.441 208 227.546 208H321.043C321.149 208 321.249 207.958 321.324 207.884C321.398 207.809 321.44 207.708 321.44 207.603C321.44 207.498 321.398 207.397 321.324 207.323C321.249 207.248 321.149 207.206 321.043 207.206H227.548C227.443 207.206 227.342 207.248 227.268 207.322C227.194 207.395 227.152 207.496 227.151 207.601V207.603Z"
            fill="#CCCCCC" />
        <path
            d="M281.916 49.1689C287.64 49.1689 292.281 44.5302 292.281 38.808C292.281 33.0859 287.64 28.4471 281.916 28.4471C276.191 28.4471 271.55 33.0859 271.55 38.808C271.55 44.5302 276.191 49.1689 281.916 49.1689Z"
            fill="#FFB8B8" />
        <path
            d="M280.923 49.3367C282.528 49.3203 284.129 49.1669 285.708 48.8781C287.272 48.5181 290.721 45.852 291.661 44.277C292.359 43.1069 292.778 41.2968 293.007 39.9846C293.316 38.2478 293.257 36.4656 292.833 34.7534C292.409 33.0411 291.629 31.437 290.546 30.0448C290.128 29.4616 289.56 29.0021 288.903 28.7148C288.845 28.6938 288.785 28.6754 288.725 28.6599C287.771 28.4353 286.907 27.9311 286.243 27.212C286.114 27.0664 285.974 26.9303 285.826 26.8048C285.08 26.2083 284.204 25.7965 283.269 25.6033C281.759 25.2406 279.598 25.695 276.847 26.955C275.465 27.588 273.931 27.4114 272.749 27.1868C272.683 27.1758 272.615 27.1823 272.552 27.2057C272.489 27.2291 272.433 27.2686 272.39 27.3202C271.902 27.8025 271.249 28.0823 270.563 28.1033C270.143 28.1326 269.718 28.7256 269.204 29.4978C269.088 29.673 268.952 29.8776 268.853 30.0025L268.833 29.768L268.603 30.0361C268.24 30.4574 267.989 30.9637 267.875 31.5078C267.76 32.052 267.785 32.6162 267.947 33.1481C268.11 33.6799 268.404 34.162 268.803 34.5496C269.202 34.9371 269.693 35.2174 270.229 35.3644C270.655 35.4659 271.09 35.5237 271.527 35.5369C271.792 35.5539 272.066 35.5714 272.33 35.6101C273.176 35.7607 273.968 36.128 274.63 36.6761C275.292 37.2243 275.8 37.9346 276.105 38.7376C276.177 38.9232 276.291 39.0898 276.438 39.2245C276.584 39.3592 276.76 39.4584 276.951 39.5144C277.142 39.5704 277.344 39.5818 277.54 39.5477C277.736 39.5136 277.922 39.4349 278.083 39.3176C278.35 39.0979 278.667 38.9462 279.006 38.8754C279.345 38.8046 279.696 38.8169 280.03 38.9111C280.319 39.0625 280.548 39.3089 280.678 39.609C280.835 39.943 281.087 40.2228 281.404 40.4127C282.483 40.9341 282.619 43.3636 282.289 45.4004C281.971 47.3637 281.279 48.7959 280.606 48.8831C280.088 48.9503 280.029 48.9887 279.994 49.0815L279.962 49.1646L280.023 49.24C280.312 49.3365 280.619 49.3695 280.923 49.3367Z"
            fill="#2F2E41" />
        <path
            d="M167.008 102.741C178.391 102.741 187.618 93.5175 187.618 82.1395C187.618 70.7614 178.391 61.5377 167.008 61.5377C155.625 61.5377 146.397 70.7614 146.397 82.1395C146.397 93.5175 155.625 102.741 167.008 102.741Z"
            fill="#D12F2F" />
        <path
            d="M278.535 79.0736L271.737 74.7276C267.407 77.7208 261.557 88.2654 261.557 88.2654L246.749 101.94C246.132 102.045 245.554 102.312 245.073 102.712C244.592 103.112 244.224 103.632 244.008 104.219C243.792 104.806 243.734 105.44 243.841 106.056C243.947 106.673 244.214 107.25 244.615 107.731C245.016 108.211 245.537 108.577 246.124 108.793C246.712 109.009 247.346 109.065 247.962 108.958C248.579 108.851 249.157 108.583 249.637 108.182C250.117 107.781 250.483 107.26 250.698 106.672L271.335 92.302L278.535 79.0736Z"
            fill="#FFB8B8" />
        <path
            d="M277.887 80.837L282.415 69.9743L280.777 63.9712C280.452 62.7939 279.803 61.7311 278.905 60.903C278.006 60.0749 276.894 59.5144 275.694 59.285C274.064 58.9849 272.382 59.3143 270.987 60.2068C269.591 61.0992 268.587 62.488 268.176 64.0923C266.936 68.959 265.984 75.2856 268.489 77.7894L268.514 77.8148L277.887 80.837Z"
            fill="#3F3D56" />
        <path
            d="M14.1961 201.715C5.33256 197.167 -1.09811 188.379 0.246353 178.988C8.11213 185.778 18.9875 189.776 30.3368 190.048C34.7572 190.154 39.7209 189.861 42.8538 192.442C44.8031 194.047 45.6268 196.525 45.6633 198.969C45.6998 201.414 45.0294 203.865 44.3635 206.285L44.5242 206.868C33.9373 207.206 23.0596 206.262 14.1961 201.715Z"
            fill="#F2F2F2" />
        <path
            d="M0.468451 178.972C3.73351 185.87 9.58816 191.719 16.9822 195.268C18.601 196.087 20.3342 196.656 22.1231 196.957C23.9467 197.206 25.8034 197.023 27.5432 196.423C29.1915 195.89 30.8222 195.179 32.558 195.002C33.4081 194.911 34.2677 194.992 35.0857 195.241C35.9037 195.489 36.6631 195.9 37.3185 196.449C38.8763 197.741 39.7745 199.489 40.5835 201.23C41.4817 203.163 42.3789 205.187 44.2147 206.543C44.4371 206.707 44.1101 207.024 43.888 206.86C40.694 204.5 40.3521 200.405 37.844 197.59C36.6736 196.277 35.0224 195.299 33.0005 195.384C31.2324 195.458 29.5502 196.189 27.8854 196.741C26.1913 197.349 24.3866 197.586 22.5929 197.438C20.7866 197.221 19.0272 196.714 17.3827 195.937C13.8047 194.313 10.5145 192.119 7.64068 189.441C4.46466 186.514 1.87735 183.008 0.0179472 179.111C-0.094838 178.873 0.3564 178.735 0.468451 178.972Z"
            fill="white" />
        <path
            d="M14.5005 194.232C12.5574 196.447 9.13762 197.196 6.51454 195.994C6.25613 195.875 6.48216 195.499 6.74092 195.617C7.99612 196.152 9.38758 196.281 10.7196 195.985C12.0516 195.688 13.2572 194.982 14.1669 193.965C14.358 193.747 14.6905 194.015 14.5005 194.232Z"
            fill="white" />
        <path
            d="M26.7394 196.788C26.6071 195.457 26.1943 194.168 25.528 193.008C24.8617 191.847 23.9572 190.841 22.8738 190.055C22.6521 189.89 22.9791 189.573 23.2006 189.738C24.3261 190.558 25.2651 191.607 25.9555 192.816C26.646 194.025 27.0723 195.367 27.2063 196.753C27.2302 197.017 26.7631 197.051 26.7394 196.788Z"
            fill="white" />
        <path
            d="M5.00809 186.243C5.45136 185.924 5.80584 185.498 6.03789 185.004C6.26994 184.509 6.37187 183.964 6.33401 183.42C6.30636 183.156 6.77348 183.123 6.80095 183.384C6.84006 183.986 6.72686 184.588 6.47181 185.134C6.21676 185.68 5.82809 186.153 5.3417 186.51C5.29757 186.551 5.24092 186.575 5.18098 186.58C5.12103 186.584 5.06131 186.569 5.01153 186.535C4.99003 186.517 4.97265 186.495 4.96061 186.47C4.94857 186.445 4.94216 186.417 4.94183 186.39C4.9415 186.362 4.94727 186.334 4.95871 186.309C4.97016 186.284 4.98701 186.261 5.00809 186.243Z"
            fill="white" />
        <path
            d="M30.5675 160.003C30.5901 160.167 30.6127 160.331 30.6387 160.496C30.9546 162.691 31.4749 164.851 32.193 166.949C32.2456 167.112 32.3016 167.277 32.3595 167.438C34.1826 172.521 37.0527 177.164 40.7843 181.068C42.3043 182.663 43.9518 184.131 45.7104 185.459C48.1617 187.312 51.0008 189.137 52.5119 191.576C52.6723 191.828 52.8148 192.091 52.9383 192.363L45.3304 206.595C45.2954 206.621 45.2639 206.648 45.2288 206.674L44.9534 207.253C44.8559 207.19 44.7565 207.122 44.659 207.059C44.6023 207.023 44.5472 206.983 44.4905 206.947C44.4532 206.921 44.416 206.896 44.3805 206.875C44.3681 206.867 44.3557 206.858 44.3468 206.851C44.3113 206.83 44.2812 206.808 44.2493 206.788C43.6923 206.412 43.1377 206.032 42.5853 205.648C42.5818 205.647 42.5818 205.647 42.5799 205.642C38.3805 202.703 34.4477 199.408 31.25 195.649C31.1538 195.536 31.054 195.422 30.9613 195.302C29.5405 193.613 28.2776 191.798 27.1885 189.878C26.602 188.835 26.0764 187.758 25.6143 186.654C24.429 183.801 23.7697 180.758 23.668 177.67C23.4599 171.486 25.4938 165.163 30.2039 160.367C30.3245 160.244 30.4434 160.125 30.5675 160.003Z"
            fill="#F2F2F2" />
        <path
            d="M30.7473 160.108C28.5138 167.678 28.9446 175.75 32.0991 182.707C32.7521 184.25 33.6742 185.666 34.8225 186.887C36.0557 188.09 37.5919 188.938 39.2681 189.34C40.872 189.774 42.5834 190.049 44.011 190.83C44.7116 191.209 45.3126 191.748 45.7648 192.403C46.2169 193.059 46.5075 193.812 46.6127 194.601C46.907 196.526 46.3942 198.482 45.819 200.385C45.1804 202.498 44.48 204.685 44.94 206.813C44.9958 207.071 44.5339 207.163 44.4783 206.906C43.6779 203.203 46.206 199.565 46.2318 195.846C46.2439 194.11 45.6654 192.4 44.0849 191.388C42.7028 190.504 40.9384 190.219 39.309 189.793C37.661 189.418 36.1298 188.646 34.849 187.544C33.6322 186.388 32.6471 185.01 31.9462 183.485C30.3355 180.123 29.3468 176.498 29.0278 172.784C28.6403 168.474 29.0766 164.13 30.3134 159.983C30.3906 159.722 30.8239 159.848 30.7473 160.108Z"
            fill="white" />
        <path
            d="M30.9349 180.503C27.9646 181.331 24.8794 180.13 23.7218 177.71C23.6077 177.471 24.0343 177.275 24.1485 177.513C25.233 179.781 28.0886 180.873 30.8652 180.099C31.1574 180.017 31.2254 180.422 30.9349 180.503Z"
            fill="white" />
        <path
            d="M38.414 189.218C39.203 188.106 39.7578 186.846 40.0446 185.513C40.3314 184.181 40.3444 182.804 40.0826 181.466C40.0279 181.208 40.4897 181.116 40.5443 181.374C40.8137 182.767 40.7971 184.2 40.4955 185.586C40.1939 186.972 39.6136 188.283 38.7898 189.438C38.6281 189.674 38.2533 189.452 38.414 189.218Z"
            fill="white" />
        <path
            d="M29.2203 168.675C29.7998 168.628 30.3619 168.454 30.8664 168.165C31.371 167.876 31.8056 167.48 32.1393 167.004C32.2976 166.767 32.6723 166.989 32.515 167.224C32.1441 167.749 31.6636 168.186 31.1067 168.506C30.5498 168.827 29.9299 169.022 29.29 169.079C29.1629 169.09 29.0462 169.042 29.0243 168.923C29.0191 168.865 29.0365 168.806 29.0729 168.76C29.1094 168.714 29.1621 168.684 29.2203 168.675Z"
            fill="white" />
        <path
            d="M57.3816 88.6727L58.0494 94.8626L57.6565 102.979L75.643 100.844L77.3332 88.6727L75.1797 88.6937L57.3816 88.6727Z"
            fill="#FFB6B6" />
        <path d="M48.0525 201.055H51.9849L53.8565 185.893H48.0525V201.055Z" fill="#FFB6B6" />
        <path
            d="M46.7691 198.362L53.0516 197.987V200.678L59.0246 204.801C59.3196 205.005 59.5418 205.297 59.6587 205.636C59.7756 205.975 59.7811 206.342 59.6744 206.684C59.5677 207.027 59.3544 207.326 59.0656 207.538C58.7768 207.75 58.4277 207.865 58.0692 207.865H50.5896L49.3004 205.204L48.797 207.865H45.9769L46.7691 198.362Z"
            fill="#2F2E41" />
        <path d="M70.1415 201.055H74.0739L75.9452 185.893H70.1415V201.055Z" fill="#FFB6B6" />
        <path
            d="M68.8581 198.362L75.1406 197.987V200.678L81.1135 204.801C81.4086 205.005 81.6308 205.297 81.7477 205.636C81.8646 205.975 81.8701 206.342 81.7634 206.684C81.6567 207.027 81.4434 207.326 81.1546 207.538C80.8658 207.75 80.5167 207.865 80.1581 207.865H72.6786L71.3893 205.204L70.886 207.865H68.0659L68.8581 198.362Z"
            fill="#2F2E41" />
        <path
            d="M46.3558 187.98H46.3986L47.1548 163.328C46.6654 162.385 46.417 161.335 46.4318 160.272C46.4466 159.209 46.724 158.166 47.2394 157.237L47.3477 157.041L47.067 155.74C46.7064 154.069 46.8719 152.327 47.5407 150.753L48.2462 127.758C45.7256 111.429 57.738 100.781 57.738 100.781H75.7327L79.596 114.048C82.15 138.92 81.6866 163.156 77.6338 186.637L77.7443 186.693C78.1421 186.83 78.3127 187.381 78.1255 187.924C77.9382 188.466 77.4639 188.794 77.0661 188.657L67.5628 188.327C67.165 188.189 66.9943 187.639 67.1816 187.096C67.3688 186.554 67.8432 186.226 68.241 186.363L68.8872 186.689L67.5091 162.901L67.662 158.556L67.347 153.627L65.8903 131.455L60.3766 158.72L54.7445 188.254C54.8999 188.395 55.0089 188.579 55.0572 188.783C55.1056 188.987 55.0909 189.201 55.0153 189.396C54.9396 189.591 54.8064 189.759 54.6334 189.877C54.4603 189.995 54.2555 190.058 54.0459 190.058H46.3558C46.2192 190.058 46.0838 190.031 45.9575 189.979C45.8312 189.927 45.7164 189.851 45.6197 189.754C45.523 189.658 45.4463 189.543 45.394 189.417C45.3416 189.291 45.3147 189.155 45.3147 189.019C45.3147 188.882 45.3416 188.747 45.394 188.621C45.4463 188.495 45.523 188.38 45.6197 188.284C45.7164 188.187 45.8312 188.111 45.9575 188.059C46.0838 188.006 46.2192 187.98 46.3558 187.98Z"
            fill="#2F2E41" />
        <path
            d="M60.5225 56.9976C65.853 56.9976 70.1743 52.6782 70.1743 47.3499C70.1743 42.0216 65.853 37.7022 60.5225 37.7022C55.1919 37.7022 50.8706 42.0216 50.8706 47.3499C50.8706 52.6782 55.1919 56.9976 60.5225 56.9976Z"
            fill="#FFB6B6" />
        <path
            d="M18.2285 91.9217C19.585 88.7739 21.4478 85.8692 23.7429 83.3229C21.7994 86.419 20.6887 89.9644 20.5183 93.6156C21.2219 94.0549 21.9582 94.4399 22.7206 94.767C25.0117 95.7275 27.4546 96.2761 29.9366 96.3874C31.2744 91.9323 33.5834 87.8291 36.6975 84.3728C34.4533 87.9502 33.3246 92.1143 33.4554 96.3349C36.2238 96.0957 38.9514 95.5113 41.5748 94.5955C45.5137 93.2411 49.337 91.2183 52.061 88.072C55.0091 84.6668 56.4621 80.1731 56.9312 75.6935C57.4004 71.2173 56.9593 66.6991 56.5146 62.2195C56.3045 60.0847 58.0831 57.6278 57.8731 55.493H57.733C56.7982 54.2121 55.8459 52.8997 55.3872 51.3808C54.932 49.8654 55.0511 48.0771 56.0979 46.8837C56.6845 46.2601 57.4246 45.8015 58.2442 45.5538C58.3213 45.4558 58.4053 45.3613 58.4928 45.2668C60.0781 43.5836 61.944 42.1886 64.0073 41.1441C62.5192 42.2675 61.5249 43.5379 61.0627 44.8503C62.3512 44.5668 63.6396 44.2845 64.9281 44.0034C65.3587 43.5468 65.8121 43.1123 66.2866 42.7015C66.9763 42.103 67.2039 42.0575 68.0267 41.4941C67.3624 42.0782 66.8474 42.8125 66.5247 43.6359C68.1807 43.2194 69.8368 42.593 70.6982 41.1686C72.1267 38.8133 70.4285 35.6355 68.0582 34.2286C66.334 33.255 64.3472 32.8478 62.3787 33.0644C60.4103 33.2811 58.5598 34.1107 57.0888 35.436C53.6611 32.9127 48.7803 32.9547 44.9675 34.8411C42.4503 36.1421 40.2819 38.0275 38.6442 40.3392C39.5942 40.2173 40.5505 40.1507 41.5082 40.1397C40.1601 40.3369 38.8763 40.8449 37.7584 41.6236C37.2639 42.3911 36.8104 43.1843 36.3999 43.9999C36.1303 44.5353 35.8759 45.0778 35.6366 45.6272C34.1696 48.966 33.2138 52.5217 32.2229 56.0354C31.0675 60.1301 29.8281 64.2528 27.6643 67.917C24.3467 73.4887 19.1132 77.6625 12.9416 79.6586C12.4269 84.2888 14.6887 88.8174 18.2285 91.9217Z"
            fill="#2F2E41" />
        <path
            d="M70.2421 63.4493L68.3689 62.7462L66.0067 58.9283L57.5924 59.6156L55.5473 63.7093L50.6205 67.4701L52.7751 78.8125L56.1225 92.5901L78.5305 89.7904L78.5068 79.4188C78.5068 79.4188 82.556 71.2247 76.0151 68.1542L70.2421 63.4493Z"
            fill="#D12F2F" />
        <path
            d="M104.782 99.4255C104.347 99.6 103.879 99.6771 103.411 99.6513C102.943 99.6255 102.486 99.4975 102.073 99.2762C101.66 99.0549 101.3 98.7457 101.02 98.3705C100.739 97.9952 100.544 97.5631 100.448 97.1044L75.4636 81.9927L80.0304 76.726L103.154 93.2363C103.935 93.127 104.73 93.3081 105.387 93.7452C106.044 94.1823 106.517 94.8451 106.718 95.608C106.919 96.3709 106.832 97.1809 106.476 97.8845C106.119 98.588 105.516 99.1364 104.782 99.4255Z"
            fill="#FFB6B6" />
        <path
            d="M67.1383 74.8268C67.1383 74.8268 65.9443 76.0276 68.9403 78.0022C71.3389 79.583 82.0374 87.3948 85.8298 88.6303C85.7823 89.1872 85.9215 89.7439 86.2255 90.213C86.5295 90.682 86.9809 91.0366 87.5087 91.2209L90.9425 83.6783C90.1992 81.954 89.0103 82.3532 88.3848 82.7442L84.2376 79.6266L74.0539 69.462L67.986 73.9434L67.1383 74.8268Z"
            fill="#D12F2F" />
        <path
            d="M57.15 35.6985C55.9899 37.4097 55.2404 39.3653 54.96 41.4133C54.6795 43.4613 54.8755 45.5463 55.5329 47.5062"
            fill="#FD6584" />
        <path
            d="M8.18273 207.603C8.18257 207.655 8.19273 207.707 8.21263 207.755C8.23252 207.803 8.26176 207.847 8.29865 207.884C8.33554 207.921 8.37936 207.95 8.4276 207.97C8.47583 207.99 8.52752 208 8.57969 208H102.075C102.18 208 102.281 207.958 102.355 207.884C102.43 207.809 102.472 207.708 102.472 207.603C102.472 207.498 102.43 207.397 102.355 207.323C102.281 207.248 102.18 207.206 102.075 207.206H8.57969C8.52752 207.206 8.47583 207.216 8.4276 207.236C8.37937 207.256 8.33554 207.285 8.29865 207.322C8.26176 207.359 8.23252 207.403 8.21263 207.451C8.19273 207.499 8.18257 207.551 8.18273 207.603Z"
            fill="#CCCCCC" />
        <path
            d="M43.8044 117.422C43.5715 117.504 43.3805 117.675 43.2735 117.897C43.1665 118.12 43.1522 118.376 43.2337 118.609L56.2596 156.135C56.3416 156.368 56.5127 156.559 56.7354 156.666C56.958 156.773 57.214 156.787 57.4472 156.706L133.24 130.125C133.473 130.043 133.664 129.872 133.771 129.649C133.878 129.427 133.892 129.171 133.811 128.938L120.785 91.411C120.703 91.1781 120.532 90.9872 120.309 90.8803C120.086 90.7734 119.83 90.7591 119.597 90.8406L43.8044 117.422Z"
            fill="#E6E6E6" />
        <path
            d="M62.9886 151.29C61.497 151.289 60.0421 150.827 58.8239 149.967C57.6057 149.107 56.6839 147.89 56.1852 146.485L49.0317 126.255C48.3946 124.453 48.4996 122.472 49.3237 120.747C50.1478 119.023 51.6235 117.696 53.4261 117.06L91.7325 103.526C98.9032 101.002 106.783 101.424 113.643 104.699C120.503 107.975 125.783 113.837 128.324 120.999C128.961 122.801 128.856 124.782 128.032 126.506C127.208 128.23 125.732 129.557 123.93 130.194L65.3839 150.878C64.6147 151.15 63.8047 151.29 62.9886 151.29Z"
            fill="white" />
        <path
            d="M113.787 111.411L79.4873 123.44C79.004 123.609 78.4051 123.157 78.1495 122.428C77.8939 121.7 78.0785 120.973 78.5618 120.803L112.862 108.774C113.345 108.605 113.944 109.057 114.2 109.786C114.455 110.514 114.271 111.242 113.787 111.411Z"
            fill="#E6E6E6" />
        <path
            d="M116.44 118.969L82.1403 130.999C81.657 131.168 81.0581 130.715 80.8025 129.987C80.5469 129.259 80.7315 128.531 81.2148 128.362L115.515 116.333C115.998 116.163 116.597 116.616 116.853 117.344C117.108 118.072 116.924 118.8 116.44 118.969Z"
            fill="#E6E6E6" />
        <path
            d="M74.8462 127.552C75.2145 128.59 75.3934 129.685 75.3745 130.785C75.3672 131.289 75.3174 131.791 75.2256 132.286C74.9332 133.887 74.2233 135.381 73.1677 136.619C72.1121 137.857 70.7482 138.794 69.214 139.336C67.6797 139.879 66.0294 140.006 64.43 139.706C62.8306 139.406 61.3388 138.689 60.1054 137.628C59.9809 137.522 59.8596 137.412 59.7417 137.298C58.7344 136.334 57.9588 135.153 57.473 133.846C56.9873 132.539 56.804 131.138 56.937 129.75C57.0699 128.362 57.5157 127.022 58.2407 125.83C58.9658 124.639 59.9514 123.627 61.1235 122.871C62.2957 122.114 63.624 121.633 65.0087 121.463C66.3935 121.293 67.7988 121.439 69.1191 121.89C70.4395 122.34 71.6407 123.084 72.6326 124.064C73.6244 125.045 74.3813 126.237 74.8462 127.552Z"
            fill="#E4E4E4" />
        <path
            d="M66.5193 132.041C67.4948 132.041 68.2856 131.25 68.2856 130.275C68.2856 129.3 67.4948 128.51 66.5193 128.51C65.5438 128.51 64.753 129.3 64.753 130.275C64.753 131.25 65.5438 132.041 66.5193 132.041Z"
            fill="#FD6584" />
        <path
            d="M59.7417 137.298C60.1951 136.247 60.7311 134.642 61.9726 135.226C62.5859 135.492 63.6843 136.299 64.1303 135.36L67.6226 128.053C67.6888 127.917 67.7816 127.795 67.8955 127.695C68.0094 127.595 68.1421 127.519 68.2859 127.471C68.4297 127.423 68.5816 127.404 68.7327 127.416C68.8838 127.428 69.0311 127.469 69.1658 127.538L75.3745 130.785C75.3672 131.289 75.3174 131.791 75.2256 132.286L60.1054 137.628L59.7417 137.298Z"
            fill="#3F3D56" />
        <path
            d="M61.544 115.719C61.1071 115.549 60.7128 115.285 60.3888 114.947C60.0648 114.608 59.8191 114.203 59.6688 113.759C59.5185 113.315 59.4675 112.844 59.5192 112.378C59.5709 111.912 59.7241 111.464 59.968 111.064L52.0639 82.9632L58.9988 82.2389L64.5876 110.088C65.2329 110.543 65.689 111.218 65.8696 111.986C66.0503 112.753 65.9428 113.561 65.5676 114.255C65.1925 114.949 64.5757 115.481 63.8341 115.751C63.0925 116.021 62.2777 116.009 61.544 115.719Z"
            fill="#FFB6B6" />
        <path
            d="M50.8946 67.5376C50.8946 67.5376 49.2019 67.5984 50.0386 71.0867C50.7085 73.8792 53.1685 91.3977 55.0918 94.8906C54.6764 95.2646 54.3973 95.7661 54.2985 96.3162C54.1996 96.8662 54.2867 97.4335 54.5459 97.9286L62.21 94.7689C62.8466 93.0024 62.3537 91.3986 61.6297 91.2566L60.7343 86.1476L59.4147 69.0083L52.1174 67.472L50.8946 67.5376Z"
            fill="#D12F2F" />
        <path
            d="M119.936 141.474L109.336 141.912C109.11 141.922 108.884 141.881 108.676 141.791C108.468 141.701 108.283 141.565 108.135 141.394C107.989 141.227 107.882 141.029 107.823 140.815C107.765 140.601 107.755 140.376 107.796 140.158C108.609 135.725 108.372 131.162 107.103 126.837C107.005 126.506 107.025 126.152 107.16 125.834C107.294 125.516 107.534 125.255 107.84 125.094C112.181 122.84 116.249 122.725 119.93 124.754C120.123 124.859 120.291 125.004 120.422 125.181C120.553 125.357 120.643 125.559 120.688 125.774C121.646 130.494 121.876 135.333 121.369 140.122C121.334 140.483 121.169 140.818 120.906 141.067C120.642 141.315 120.298 141.46 119.936 141.474Z"
            fill="#D12F2F" />
        <path
            d="M119.487 134.539L111.383 134.875C111.283 134.879 111.183 134.863 111.089 134.829C110.995 134.795 110.909 134.742 110.836 134.675C110.762 134.607 110.702 134.525 110.66 134.435C110.618 134.344 110.594 134.246 110.59 134.146C110.586 134.046 110.602 133.947 110.636 133.853C110.671 133.759 110.723 133.673 110.791 133.599C110.859 133.526 110.94 133.467 111.031 133.425C111.122 133.383 111.22 133.359 111.32 133.355L119.424 133.019C119.524 133.015 119.624 133.031 119.718 133.065C119.811 133.1 119.898 133.152 119.971 133.22C120.045 133.287 120.104 133.369 120.146 133.459C120.188 133.55 120.212 133.648 120.216 133.748C120.22 133.848 120.205 133.947 120.17 134.041C120.136 134.135 120.083 134.221 120.016 134.294C119.948 134.368 119.866 134.427 119.776 134.469C119.685 134.511 119.587 134.535 119.487 134.539Z"
            fill="white" />
        <path
            d="M119.377 131.874L111.272 132.21C111.071 132.218 110.874 132.146 110.726 132.009C110.577 131.873 110.489 131.683 110.481 131.481C110.472 131.28 110.544 131.083 110.681 130.935C110.818 130.786 111.008 130.698 111.209 130.69L119.314 130.354C119.516 130.346 119.712 130.418 119.861 130.555C120.009 130.691 120.097 130.881 120.106 131.083C120.114 131.284 120.042 131.481 119.905 131.629C119.769 131.778 119.578 131.866 119.377 131.874Z"
            fill="white" />
        <path
            d="M313.79 58.5941L303.271 57.2151C303.047 57.1861 302.831 57.1066 302.642 56.9826C302.452 56.8586 302.293 56.6932 302.176 56.499C302.061 56.3094 301.99 56.0961 301.968 55.8752C301.947 55.6543 301.976 55.4314 302.053 55.2233C303.613 50.9941 304.16 46.4585 303.65 41.98C303.61 41.6374 303.69 41.2915 303.877 41.0013C304.063 40.7112 304.345 40.4947 304.673 40.3889C309.337 38.9093 313.364 39.4919 316.644 42.1198C316.816 42.256 316.956 42.4281 317.055 42.624C317.154 42.82 317.209 43.0352 317.216 43.2545C317.353 48.0687 316.751 52.8753 315.433 57.5076C315.337 57.8567 315.117 58.1591 314.815 58.3588C314.513 58.5586 314.149 58.6422 313.79 58.5941Z"
            fill="#D12F2F" />
        <path
            d="M314.534 51.6852L306.491 50.6308C306.392 50.6178 306.297 50.5854 306.21 50.5355C306.124 50.4856 306.048 50.4192 305.987 50.3399C305.926 50.2607 305.881 50.1703 305.855 50.0739C305.83 49.9774 305.823 49.8768 305.836 49.7777C305.849 49.6787 305.881 49.5832 305.931 49.4967C305.981 49.4102 306.048 49.3343 306.127 49.2735C306.206 49.2126 306.297 49.168 306.393 49.1421C306.49 49.1162 306.59 49.1096 306.689 49.1225L314.732 50.177C314.932 50.2032 315.113 50.3078 315.236 50.4678C315.359 50.6277 315.414 50.83 315.387 51.03C315.361 51.23 315.256 51.4114 315.096 51.5342C314.936 51.6571 314.734 51.7114 314.534 51.6852Z"
            fill="white" />
        <path
            d="M314.881 49.0405L306.838 47.9861C306.739 47.9732 306.643 47.941 306.557 47.8912C306.47 47.8413 306.394 47.7749 306.333 47.6956C306.272 47.6164 306.227 47.5259 306.201 47.4293C306.175 47.3328 306.168 47.232 306.181 47.1329C306.194 47.0337 306.227 46.9381 306.277 46.8515C306.327 46.7649 306.394 46.689 306.473 46.6281C306.552 46.5673 306.643 46.5227 306.74 46.4969C306.836 46.4711 306.937 46.4646 307.036 46.4778L315.079 47.5322C315.178 47.5451 315.274 47.5773 315.361 47.6271C315.447 47.677 315.523 47.7434 315.584 47.8227C315.645 47.9019 315.69 47.9924 315.716 48.089C315.742 48.1856 315.749 48.2863 315.736 48.3854C315.723 48.4846 315.69 48.5802 315.64 48.6668C315.59 48.7534 315.524 48.8293 315.444 48.8902C315.365 48.951 315.274 48.9956 315.178 49.0214C315.081 49.0472 314.98 49.0537 314.881 49.0405Z"
            fill="white" />
        <path
            d="M173.679 78.9719H170.177V75.471C170.177 74.631 169.843 73.8253 169.248 73.2313C168.654 72.6372 167.848 72.3035 167.008 72.3035C166.167 72.3035 165.361 72.6372 164.767 73.2313C164.173 73.8253 163.839 74.631 163.839 75.471V78.9719H160.336C159.496 78.9719 158.69 79.3057 158.096 79.8997C157.501 80.4937 157.168 81.2994 157.168 82.1395C157.168 82.9795 157.501 83.7852 158.096 84.3792C158.69 84.9732 159.496 85.3069 160.336 85.3069H163.839V88.8079C163.839 89.6479 164.173 90.4536 164.767 91.0476C165.361 91.6416 166.167 91.9754 167.008 91.9754C167.848 91.9754 168.654 91.6416 169.248 91.0476C169.843 90.4536 170.177 89.6479 170.177 88.8079V85.3069H173.679C174.519 85.3069 175.325 84.9732 175.92 84.3792C176.514 83.7852 176.848 82.9795 176.848 82.1395C176.848 81.2994 176.514 80.4937 175.92 79.8997C175.325 79.3057 174.519 78.9719 173.679 78.9719Z"
            fill="white" />
        <path
            d="M287.103 14.182C288.947 14.182 290.442 12.6875 290.442 10.8439C290.442 9.00041 288.947 7.50592 287.103 7.50592C285.259 7.50592 283.764 9.00041 283.764 10.8439C283.764 12.6875 285.259 14.182 287.103 14.182Z"
            fill="#3F3D56" />
        <path
            d="M81.9602 108.54C83.8045 108.54 85.2997 107.046 85.2997 105.202C85.2997 103.359 83.8045 101.864 81.9602 101.864C80.1158 101.864 78.6207 103.359 78.6207 105.202C78.6207 107.046 80.1158 108.54 81.9602 108.54Z"
            fill="#3F3D56" />
    </g>
    <defs>
        <clipPath id="clip0_1_313">
            <rect width="330" height="208" fill="white" />
        </clipPath>
    </defs>
</svg>