<svg width="279" height="327" viewBox="0 0 279 327" fill="none" xmlns="http://www.w3.org/2000/svg">
    <g clip-path="url(#clip0_5_179)">
        <path
            d="M65.7988 133.462C76.3636 133.462 84.928 124.894 84.928 114.325C84.928 103.756 76.3636 95.1887 65.7988 95.1887C55.234 95.1887 46.6696 103.756 46.6696 114.325C46.6696 124.894 55.234 133.462 65.7988 133.462Z"
            fill="#2F2E41" />
        <path
            d="M67.4056 133.498C76.055 133.498 83.0667 126.484 83.0667 117.831C83.0667 109.178 76.055 102.164 67.4056 102.164C58.7563 102.164 51.7446 109.178 51.7446 117.831C51.7446 126.484 58.7563 133.498 67.4056 133.498Z"
            fill="#A0616A" />
        <path
            d="M127.049 165.487C126.801 165.737 126.572 166.007 126.366 166.293L94.763 165.176L91.1482 158.395L80.205 162.514L85.4375 175.144C85.8602 176.164 86.6022 177.02 87.5523 177.582C88.5023 178.144 89.609 178.383 90.7063 178.263L126.468 174.335C127.299 175.411 128.438 176.21 129.734 176.623C131.029 177.036 132.42 177.045 133.721 176.648C135.021 176.252 136.17 175.468 137.015 174.402C137.86 173.336 138.36 172.038 138.449 170.681C138.538 169.323 138.212 167.971 137.514 166.803C136.816 165.636 135.779 164.709 134.542 164.145C133.304 163.582 131.924 163.409 130.586 163.649C129.247 163.889 128.014 164.531 127.049 165.49V165.487Z"
            fill="#A0616A" />
        <path
            d="M75.9953 168.612C75.5926 168.432 75.2335 168.166 74.9427 167.834C74.6518 167.502 74.4361 167.111 74.31 166.688L69.9103 151.908C69.4323 150.894 69.1587 149.796 69.1052 148.676C69.0517 147.556 69.2193 146.437 69.5985 145.382C69.9777 144.327 70.561 143.357 71.3151 142.527C72.0692 141.698 72.9793 141.025 73.9933 140.548C75.0074 140.07 76.1056 139.797 77.2251 139.745C78.3446 139.692 79.4635 139.861 80.5179 140.241C81.5722 140.621 82.5413 141.206 83.3698 141.961C84.1983 142.716 84.8699 143.627 85.3463 144.642L93.8728 157.549C94.1161 157.918 94.2772 158.334 94.3451 158.771C94.413 159.207 94.3861 159.653 94.2662 160.078C94.1463 160.503 93.9363 160.897 93.6504 161.233C93.3646 161.57 93.0096 161.84 92.6097 162.027L78.5554 168.591C78.1556 168.778 77.7201 168.876 77.2787 168.879C76.8373 168.883 76.4004 168.791 75.9978 168.61L75.9953 168.612Z"
            fill="#CCCCCC" />
        <path d="M107.122 318.661L113.988 314.922L102.839 286.649L92.7053 292.167L107.122 318.661Z" fill="#A0616A" />
        <path
            d="M104.15 317.372L117.671 310.008C118.803 309.392 120.045 309.005 121.326 308.868C122.607 308.732 123.903 308.85 125.138 309.215C126.374 309.579 127.526 310.184 128.528 310.994C129.53 311.804 130.363 312.804 130.979 313.936L131.131 314.216L108.993 326.272L104.15 317.372Z"
            fill="#2F2E41" />
        <path d="M31.5697 318.691H39.3865L43.1058 288.527H31.5646L31.5697 318.691Z" fill="#A0616A" />
        <path
            d="M29.5751 316.139H44.9709C47.5729 316.139 50.0683 317.173 51.9082 319.013C53.748 320.854 54.7817 323.35 54.7817 325.953V326.273H29.5758L29.5751 316.139Z"
            fill="#2F2E41" />
        <path
            d="M80.1457 184.815L82.6962 215.433L111.147 300.818C111.361 301.46 111.311 302.161 111.009 302.766C110.706 303.372 110.176 303.832 109.534 304.046C109.463 304.07 109.391 304.09 109.318 304.107L100.599 306.184C100.04 306.318 99.4529 306.258 98.9322 306.016C98.4115 305.774 97.9876 305.364 97.7292 304.851L61.3563 232.669C61.2378 232.434 61.0493 232.241 60.8169 232.117C60.5845 231.994 60.3195 231.945 60.0583 231.978C59.7971 232.011 59.5525 232.124 59.358 232.301C59.1635 232.479 59.0288 232.712 58.9722 232.969L42.9674 305.92C42.8427 306.488 42.5277 306.996 42.0747 307.361C41.6216 307.725 41.0576 307.924 40.4762 307.924H32.3616C32.0272 307.925 31.696 307.859 31.3869 307.732C31.0777 307.604 30.7967 307.417 30.5598 307.181C30.323 306.945 30.1349 306.665 30.0064 306.356C29.8778 306.047 29.8114 305.716 29.8107 305.382C29.8107 305.367 29.8108 305.352 29.811 305.338C30.5545 254.753 28.1022 197.118 47.6241 188.001L50.8123 179.708L80.1457 184.815Z"
            fill="#3F3D56" />
        <path
            d="M49.896 181.88L46.6097 161.993C46.0655 158.731 46.3509 155.385 47.4395 152.263C48.5281 149.141 50.3849 146.343 52.8387 144.128C55.2372 141.934 58.1492 140.379 61.3063 139.607C64.4634 138.835 67.764 138.871 70.9037 139.711C71.0899 139.761 71.2767 139.812 71.4636 139.865C75.3262 140.972 78.7561 143.238 81.2901 146.358C83.8241 149.477 85.34 153.299 85.6332 157.308C86.2607 165.945 85.697 178.476 79.4621 189.12L79.341 189.326L49.896 181.88Z"
            fill="#CCCCCC" />
        <path
            d="M82.9851 109.504C79.4064 111.972 75.1585 113.285 70.8119 113.268C72.3624 114.343 74.1276 115.07 75.9857 115.397C70.2068 116.637 64.2342 116.671 58.4417 115.496C57.1541 115.289 55.9117 114.863 54.7689 114.234C54.1995 113.916 53.7033 113.481 53.3128 112.959C52.9223 112.436 52.646 111.837 52.5021 111.201C52.1195 109.001 53.8303 107.002 55.6112 105.656C58.3374 103.625 61.4807 102.226 64.8138 101.56C68.1468 100.893 71.5863 100.976 74.8833 101.803C77.0359 102.36 79.1924 103.3 80.5908 105.03C81.9891 106.76 82.4036 109.426 81.0709 111.207L82.9851 109.504Z"
            fill="#2F2E41" />
        <path
            d="M65.5476 95.0943C67.3629 87.7586 60.8564 79.614 53.3049 79.7665C45.6449 79.9215 40.0075 86.847 36.1326 93.4581C32.2577 100.069 28.4076 107.566 21.2954 110.413C18.9413 111.355 16.3904 111.698 13.8713 111.411C11.3522 111.124 8.94371 110.216 6.86167 108.769C4.77963 107.321 3.08916 105.38 1.94181 103.118C0.794466 100.856 0.226104 98.345 0.287683 95.8094C-0.668777 103.842 0.655608 112.534 5.83516 118.748C11.0147 124.961 20.6494 127.761 27.5787 123.586C31.532 121.201 34.0628 117.056 36.1473 112.933C38.2317 108.81 40.0866 104.462 43.2448 101.091C46.403 97.7198 51.2867 95.4828 55.6826 96.9008C57.4272 97.464 58.9926 98.5593 60.7952 98.8948C62.5978 99.2304 64.8672 98.3717 65.1133 96.5544L65.5476 95.0943Z"
            fill="#2F2E41" />
        <path
            d="M27.7993 228.058C27.1493 227.296 26.6742 226.4 26.4076 225.435C26.1409 224.469 26.0891 223.456 26.2558 222.469C26.4226 221.481 26.8039 220.542 27.3727 219.717C27.9416 218.893 28.6842 218.203 29.5483 217.697L43.1333 156.778L56.9146 162.437L39.2283 220.536C39.9865 222.045 40.1642 223.78 39.7276 225.412C39.2909 227.043 38.2705 228.458 36.86 229.386C35.4496 230.314 33.7475 230.691 32.077 230.447C30.4066 230.202 28.8843 229.352 27.7993 228.058Z"
            fill="#A0616A" />
        <path
            d="M37.7522 165.518C37.535 165.134 37.4034 164.706 37.3664 164.266C37.3294 163.826 37.388 163.383 37.538 162.967L42.7621 148.458C43.2018 146.238 44.5051 144.284 46.3852 143.025C48.2653 141.766 50.5682 141.306 52.7874 141.746C55.0066 142.186 56.9602 143.49 58.2185 145.37C59.4768 147.251 59.9367 149.555 59.497 151.775L58.7031 167.226C58.6805 167.667 58.5631 168.098 58.3589 168.489C58.1548 168.881 57.8687 169.224 57.5201 169.495C57.1716 169.766 56.7687 169.958 56.3391 170.059C55.9094 170.16 55.463 170.168 55.0303 170.081L39.8226 167.019C39.3898 166.932 38.9808 166.753 38.6236 166.493C38.2664 166.234 37.9694 165.9 37.7528 165.515L37.7522 165.518Z"
            fill="#CCCCCC" />
        <path
            d="M191.472 2.33403C191.182 1.64666 190.698 1.05925 190.078 0.64443C189.458 0.229606 188.731 0.00556131 187.985 0H118.38C117.379 0.000507071 116.42 0.398331 115.713 1.10606C115.005 1.81378 114.607 2.77352 114.607 3.77439V91.8636C114.607 92.8645 115.005 93.8242 115.713 94.532C116.42 95.2397 117.379 95.6375 118.38 95.638H187.985C188.985 95.6367 189.944 95.2386 190.652 94.531C191.359 93.8235 191.757 92.8643 191.758 91.8636V3.77567C191.76 3.28082 191.663 2.79063 191.472 2.33403ZM190.92 91.863C190.919 92.6407 190.609 93.3862 190.06 93.9362C189.51 94.4861 188.765 94.7958 187.987 94.7973H118.38C117.602 94.7973 116.856 94.4882 116.306 93.9379C115.756 93.3876 115.447 92.6412 115.447 91.863V3.77567C115.448 2.99791 115.758 2.25244 116.308 1.70248C116.857 1.15252 117.602 0.842893 118.38 0.841375H187.985C188.572 0.843786 189.144 1.02107 189.63 1.35058C190.115 1.68009 190.491 2.14685 190.71 2.69125C190.753 2.79956 190.789 2.91008 190.82 3.02232C190.887 3.26939 190.921 3.52419 190.921 3.78013L190.92 91.863Z"
            fill="#CCCCCC" />
        <path
            d="M176.944 20.799H155.979C155.534 20.799 155.107 20.6222 154.793 20.3075C154.478 19.9928 154.302 19.5661 154.302 19.121C154.302 18.676 154.478 18.2492 154.793 17.9345C155.107 17.6198 155.534 17.4431 155.979 17.4431H176.944C177.383 17.4516 177.801 17.6322 178.109 17.9459C178.416 18.2597 178.589 18.6816 178.589 19.121C178.589 19.5605 178.416 19.9824 178.109 20.2961C177.801 20.6099 177.384 20.7904 176.944 20.799Z"
            fill="#CCCCCC" />
        <path
            d="M176.944 29.6083H155.979C155.534 29.6083 155.107 29.4315 154.793 29.1168C154.478 28.8021 154.302 28.3753 154.302 27.9303C154.302 27.4853 154.478 27.0585 154.793 26.7438C155.107 26.4291 155.534 26.2523 155.979 26.2523H176.944C177.383 26.2609 177.801 26.4414 178.109 26.7552C178.416 27.0689 178.589 27.4908 178.589 27.9303C178.589 28.3697 178.416 28.7916 178.109 29.1054C177.801 29.4191 177.384 29.5997 176.944 29.6083Z"
            fill="#CCCCCC" />
        <path
            d="M145.224 34.624H129.9C129.4 34.6234 128.92 34.4244 128.566 34.0706C128.213 33.7167 128.014 33.2369 128.013 32.7364V14.6491C128.014 14.1487 128.213 13.6689 128.566 13.315C128.92 12.9611 129.4 12.7621 129.9 12.7616H145.224C145.725 12.7623 146.204 12.9613 146.558 13.3152C146.912 13.669 147.111 14.1487 147.111 14.6491V32.7364C147.111 33.2369 146.912 33.7167 146.558 34.0706C146.204 34.4244 145.725 34.6234 145.224 34.624Z"
            fill="#CCCCCC" />
        <path
            d="M176.799 47.6452H129.417C128.973 47.6452 128.546 47.4685 128.231 47.1538C127.917 46.8391 127.74 46.4123 127.74 45.9673C127.74 45.5222 127.917 45.0954 128.231 44.7808C128.546 44.4661 128.973 44.2893 129.417 44.2893H176.799C177.243 44.2893 177.67 44.4661 177.985 44.7808C178.299 45.0954 178.476 45.5222 178.476 45.9673C178.476 46.4123 178.299 46.8391 177.985 47.1538C177.67 47.4685 177.243 47.6452 176.799 47.6452Z"
            fill="#CCCCCC" />
        <path
            d="M176.799 56.457H129.417C128.973 56.457 128.546 56.2802 128.231 55.9656C127.917 55.6509 127.74 55.2241 127.74 54.7791C127.74 54.334 127.917 53.9072 128.231 53.5926C128.546 53.2779 128.973 53.1011 129.417 53.1011H176.799C177.243 53.1011 177.67 53.2779 177.985 53.5926C178.299 53.9072 178.476 54.334 178.476 54.7791C178.476 55.2241 178.299 55.6509 177.985 55.9656C177.67 56.2802 177.243 56.457 176.799 56.457Z"
            fill="#CCCCCC" />
        <path
            d="M176.799 65.263H129.417C128.973 65.263 128.546 65.0863 128.231 64.7716C127.917 64.4569 127.74 64.0301 127.74 63.5851C127.74 63.1401 127.917 62.7133 128.231 62.3986C128.546 62.0839 128.973 61.9071 129.417 61.9071H176.799C177.243 61.9071 177.67 62.0839 177.985 62.3986C178.299 62.7133 178.476 63.1401 178.476 63.5851C178.476 64.0301 178.299 64.4569 177.985 64.7716C177.67 65.0863 177.243 65.263 176.799 65.263Z"
            fill="#CCCCCC" />
        <path
            d="M176.799 74.0742H129.417C128.973 74.0742 128.546 73.8974 128.231 73.5827C127.917 73.2681 127.74 72.8413 127.74 72.3962C127.74 71.9512 127.917 71.5244 128.231 71.2097C128.546 70.8951 128.973 70.7183 129.417 70.7183H176.799C177.243 70.7183 177.67 70.8951 177.985 71.2097C178.299 71.5244 178.476 71.9512 178.476 72.3962C178.476 72.8413 178.299 73.2681 177.985 73.5827C177.67 73.8974 177.243 74.0742 176.799 74.0742Z"
            fill="#CCCCCC" />
        <path
            d="M176.799 82.8809H129.417C128.973 82.8809 128.546 82.7041 128.231 82.3894C127.917 82.0748 127.74 81.648 127.74 81.2029C127.74 80.7579 127.917 80.3311 128.231 80.0164C128.546 79.7018 128.973 79.525 129.417 79.525H176.799C177.243 79.525 177.67 79.7018 177.985 80.0164C178.299 80.3311 178.476 80.7579 178.476 81.2029C178.476 81.648 178.299 82.0748 177.985 82.3894C177.67 82.7041 177.243 82.8809 176.799 82.8809Z"
            fill="#CCCCCC" />
        <path
            d="M233.51 54.3466C233.142 53.4728 232.526 52.7261 231.739 52.1989C230.951 51.6717 230.026 51.3871 229.079 51.3804H140.622C139.35 51.381 138.131 51.8867 137.232 52.7861C136.333 53.6856 135.828 54.9053 135.827 56.1773V168.127C135.828 169.399 136.333 170.619 137.232 171.518C138.131 172.417 139.35 172.923 140.622 172.924H229.082C230.353 172.922 231.572 172.416 232.47 171.517C233.369 170.618 233.875 169.398 233.877 168.127V56.1773C233.879 55.5489 233.755 54.9265 233.513 54.3466H233.51Z"
            fill="#E6E6E6" />
        <path
            d="M226.307 166.638H143.641C142.45 166.637 141.517 165.333 141.517 163.67V59.8222C141.518 58.1577 142.452 56.8542 143.641 56.8542H226.307C227.499 56.8557 228.432 58.1592 228.432 59.8222V163.67C228.431 165.335 227.497 166.638 226.307 166.638Z"
            fill="white" />
        <path
            d="M233.51 54.3466C233.142 53.4728 232.526 52.7261 231.739 52.1989C230.951 51.6717 230.026 51.3871 229.079 51.3804H140.622C139.35 51.381 138.131 51.8867 137.232 52.7861C136.333 53.6856 135.828 54.9053 135.827 56.1773V168.127C135.828 169.399 136.333 170.619 137.232 171.518C138.131 172.417 139.35 172.923 140.622 172.924H229.082C230.353 172.922 231.572 172.416 232.47 171.517C233.369 170.618 233.875 169.398 233.877 168.127V56.1773C233.879 55.5489 233.755 54.9265 233.513 54.3466H233.51ZM232.809 168.127C232.808 169.116 232.414 170.065 231.715 170.764C231.016 171.464 230.067 171.857 229.079 171.858H140.622C139.633 171.858 138.684 171.465 137.985 170.766C137.285 170.066 136.892 169.117 136.892 168.128V56.1779C136.893 55.1887 137.287 54.2403 137.986 53.5408C138.685 52.8412 139.633 52.4476 140.622 52.4463H229.082C229.827 52.4491 230.554 52.6739 231.171 53.092C231.787 53.5101 232.265 54.1026 232.544 54.7937C232.598 54.9314 232.645 55.072 232.684 55.2147C232.769 55.5288 232.812 55.8527 232.812 56.1779L232.809 168.127Z"
            fill="#3F3D56" />
        <path
            d="M215.05 77.8113H188.406C187.841 77.8113 187.299 77.5866 186.899 77.1867C186.499 76.7868 186.274 76.2444 186.274 75.6788C186.274 75.1133 186.499 74.5709 186.899 74.171C187.299 73.7711 187.841 73.5464 188.406 73.5464H215.05C215.616 73.5464 216.158 73.7711 216.558 74.171C216.958 74.5709 217.182 75.1133 217.182 75.6788C217.182 76.2444 216.958 76.7868 216.558 77.1867C216.158 77.5866 215.616 77.8113 215.05 77.8113Z"
            fill="#3F3D56" />
        <path
            d="M215.05 89.0063H188.406C187.841 89.0063 187.299 88.7816 186.899 88.3817C186.499 87.9818 186.274 87.4394 186.274 86.8738C186.274 86.3082 186.499 85.7658 186.899 85.3659C187.299 84.966 187.841 84.7413 188.406 84.7413H215.05C215.616 84.7413 216.158 84.966 216.558 85.3659C216.958 85.7658 217.182 86.3082 217.182 86.8738C217.182 87.4394 216.958 87.9818 216.558 88.3817C216.158 88.7816 215.616 89.0063 215.05 89.0063Z"
            fill="#3F3D56" />
        <path
            d="M174.735 95.3807H155.263C154.628 95.38 154.018 95.127 153.568 94.6773C153.119 94.2275 152.866 93.6177 152.865 92.9816V69.9946C152.866 69.3586 153.119 68.7487 153.568 68.299C154.018 67.8492 154.628 67.5962 155.263 67.5955H174.735C175.371 67.5962 175.98 67.8492 176.43 68.299C176.88 68.7487 177.133 69.3586 177.133 69.9946V92.9816C177.133 93.6177 176.88 94.2275 176.43 94.6773C175.98 95.127 175.371 95.38 174.735 95.3807Z"
            fill="#D12F2F" />
        <path
            d="M214.866 111.929H154.649C154.084 111.929 153.542 111.705 153.142 111.305C152.742 110.905 152.518 110.363 152.518 109.797C152.518 109.231 152.742 108.689 153.142 108.289C153.542 107.889 154.084 107.664 154.649 107.664H214.866C215.431 107.664 215.973 107.889 216.373 108.289C216.773 108.689 216.997 109.231 216.997 109.797C216.997 110.363 216.773 110.905 216.373 111.305C215.973 111.705 215.431 111.929 214.866 111.929Z"
            fill="#E6E6E6" />
        <path
            d="M214.866 123.124H154.649C154.084 123.126 153.541 122.903 153.14 122.504C152.739 122.105 152.513 121.563 152.512 120.998C152.51 120.432 152.733 119.889 153.132 119.488C153.531 119.087 154.072 118.861 154.638 118.859H214.866C215.431 118.859 215.973 119.084 216.373 119.484C216.773 119.884 216.997 120.426 216.997 120.992C216.997 121.557 216.773 122.1 216.373 122.5C215.973 122.9 215.431 123.124 214.866 123.124Z"
            fill="#E6E6E6" />
        <path
            d="M214.866 134.319H154.649C154.084 134.319 153.542 134.095 153.142 133.695C152.742 133.295 152.518 132.752 152.518 132.187C152.518 131.621 152.742 131.079 153.142 130.679C153.542 130.279 154.084 130.054 154.649 130.054H214.866C215.431 130.053 215.974 130.276 216.375 130.675C216.775 131.074 217.002 131.615 217.003 132.181C217.005 132.747 216.782 133.29 216.383 133.691C215.984 134.092 215.443 134.318 214.877 134.319H214.866Z"
            fill="#E6E6E6" />
        <path
            d="M214.866 145.514H154.649C154.369 145.515 154.092 145.461 153.833 145.354C153.574 145.248 153.339 145.091 153.14 144.894C152.942 144.696 152.784 144.462 152.676 144.203C152.569 143.945 152.513 143.668 152.512 143.388C152.511 143.108 152.565 142.83 152.672 142.571C152.778 142.312 152.935 142.077 153.132 141.878C153.329 141.68 153.564 141.522 153.822 141.414C154.081 141.306 154.358 141.25 154.638 141.249H214.866C215.431 141.249 215.973 141.474 216.373 141.874C216.773 142.274 216.997 142.816 216.997 143.382C216.997 143.947 216.773 144.49 216.373 144.89C215.973 145.29 215.431 145.514 214.866 145.514Z"
            fill="#E6E6E6" />
        <path
            d="M214.866 156.709H154.649C154.084 156.711 153.541 156.488 153.14 156.089C152.739 155.69 152.513 155.148 152.512 154.583C152.51 154.017 152.733 153.474 153.132 153.073C153.531 152.672 154.072 152.446 154.638 152.444H214.866C215.431 152.444 215.973 152.669 216.373 153.069C216.773 153.469 216.997 154.011 216.997 154.577C216.997 155.142 216.773 155.685 216.373 156.085C215.973 156.485 215.431 156.709 214.866 156.709Z"
            fill="#E6E6E6" />
        <path
            d="M244.567 77.5855C263.584 77.5855 279 62.1635 279 43.1395C279 24.1155 263.584 8.69348 244.567 8.69348C225.551 8.69348 210.135 24.1155 210.135 43.1395C210.135 62.1635 225.551 77.5855 244.567 77.5855Z"
            fill="#D12F2F" />
        <path
            d="M249.991 44.2819V25.2786H240.208V44.2819H235.641L240.369 52.4756L245.099 60.6706L249.829 52.4756L254.559 44.2806L249.991 44.2819Z"
            fill="white" />
        <path
            d="M257.367 327H14.4267C14.2576 327 14.0954 326.933 13.9758 326.813C13.8562 326.694 13.7891 326.531 13.7891 326.362C13.7891 326.193 13.8562 326.031 13.9758 325.911C14.0954 325.791 14.2576 325.724 14.4267 325.724H257.367C257.537 325.724 257.699 325.791 257.818 325.911C257.938 326.031 258.005 326.193 258.005 326.362C258.005 326.531 257.938 326.694 257.818 326.813C257.699 326.933 257.537 327 257.367 327Z"
            fill="#E6E6E6" />
        <path
            d="M236.612 321.327C230.49 325.738 222.559 325.96 214.892 325.418C213.821 325.343 212.758 325.254 211.704 325.158H211.682C211.632 325.153 211.581 325.149 211.533 325.146L210.882 325.082L210.933 325.179L211.093 325.48C211.035 325.379 210.978 325.28 210.921 325.179C210.904 325.149 210.885 325.119 210.868 325.089C208.882 321.631 206.915 318.047 206.41 314.098C205.89 310 207.35 305.359 210.956 303.345C211.428 303.082 211.929 302.872 212.448 302.719C212.664 302.656 212.882 302.6 213.104 302.554C214.456 302.253 215.864 302.318 217.183 302.743C218.502 303.167 219.684 303.935 220.607 304.968C221.531 306.001 222.163 307.261 222.438 308.62C222.713 309.978 222.622 311.385 222.173 312.696C225.23 309.56 224.66 304.474 223.605 300.222C222.55 295.971 221.269 291.24 223.418 287.422C224.027 286.397 224.845 285.514 225.819 284.829C226.793 284.143 227.902 283.672 229.071 283.446C229.143 283.431 229.216 283.415 229.288 283.402C232.096 282.832 235.016 283.344 237.464 284.835C241.972 287.677 244.287 293.064 245.038 298.342C246.25 306.834 243.57 316.313 236.612 321.327Z"
            fill="#F2F2F2" />
    </g>
    <defs>
        <clipPath id="clip0_5_179">
            <rect width="279" height="327" fill="white" />
        </clipPath>
    </defs>
</svg>