<svg width="502" height="501" viewBox="0 0 502 501" fill="none" xmlns="http://www.w3.org/2000/svg">
    <path
        d="M169.755 410.152C155.142 410.736 142.367 412.824 150.049 414.828C157.731 416.915 125.249 418.335 123.746 425.683C122.327 433.031 174.18 433.615 206.328 428.605C238.475 423.595 241.732 419.504 261.521 418.335C281.227 417.166 307.53 405.977 287.072 402.72C271.458 400.215 226.785 403.054 212.173 407.146C197.56 411.237 169.755 410.152 169.755 410.152Z"
        fill="#99ADF9" />
    <path
        d="M183.532 412.573C172.844 412.991 163.575 414.494 169.17 415.997C174.764 417.5 151.05 418.585 149.965 423.929C148.879 429.273 186.705 429.691 210.168 426.1C233.632 422.51 235.97 419.42 250.415 418.585C264.777 417.75 283.982 409.567 269.036 407.229C257.68 405.392 225.115 407.48 214.427 410.486C203.739 413.408 183.532 412.573 183.532 412.573Z"
        fill="#8EA6F4" />
    <path d="M302.102 408.482H433.698L388.775 421.257L302.102 408.482Z" fill="#E1EAF6" />
    <path
        d="M299.013 91.6831C294.003 82.3311 278.138 81.3291 278.305 97.1106C278.472 112.892 283.732 116.733 291.08 116.984C298.846 117.234 304.607 102.204 299.013 91.6831Z"
        fill="#1C3177" />
    <path
        d="M281.895 88.176C279.64 90.5975 277.72 95.023 280.893 95.4405C283.231 95.7745 287.573 89.0945 287.239 87.508C286.821 85.671 284.483 85.4205 281.895 88.176Z"
        fill="#485B95" />
    <path
        d="M272.877 93.854C264.777 95.524 262.105 109.803 267.282 118.654C272.459 127.505 281.143 124.081 283.147 118.904C285.151 113.727 280.893 92.184 272.877 93.854Z"
        fill="#1C3177" />
    <path
        d="M268.368 97.9455C266.614 100.283 265.445 104.291 268.201 104.375C270.288 104.458 273.378 98.196 272.96 96.86C272.459 95.2735 270.372 95.2735 268.368 97.9455Z"
        fill="#485B95" />
    <path
        d="M269.37 136.522C269.37 136.522 264.11 137.524 264.945 144.956C265.78 152.471 271.207 154.141 271.207 154.141C271.207 154.141 268.702 144.121 269.37 136.522Z"
        fill="#F48B77" />
    <path
        d="M286.989 186.622C291.247 187.958 293.669 185.036 293.669 185.036L295.506 179.274L298.762 169.004C291.832 168.419 285.82 168.085 285.82 168.085L285.319 172.511L284.4 180.777C284.4 180.777 282.814 185.286 286.989 186.622Z"
        fill="#F7A491" />
    <path
        d="M285.319 172.511C285.987 173.262 286.822 174.097 287.657 174.932C289.911 176.936 292.917 178.356 295.506 179.274L298.762 169.004C291.832 168.419 285.82 168.085 285.82 168.085L285.319 172.511Z"
        fill="#F48B77" />
    <path
        d="M294.614 110.154C280.747 109.544 268.901 122.793 268.155 139.747C267.41 156.7 278.047 170.938 291.914 171.548C305.781 172.158 317.626 158.909 318.372 141.955C319.118 125.002 308.481 110.764 294.614 110.154Z"
        fill="#F7A491" />
    <path
        d="M284.567 169.839C286.905 170.841 289.327 171.425 291.999 171.509C305.86 172.093 317.717 158.9 318.468 141.95C319.22 125.166 308.782 111.055 295.172 110.22C305.192 114.562 312.122 126.502 311.538 140.28C310.786 157.23 298.929 170.423 285.068 169.839C284.818 169.839 284.651 169.839 284.567 169.839Z"
        fill="#F48B77" />
    <path
        d="M312.874 154.726C312.874 154.726 317.383 144.121 313.208 131.847C309.033 119.572 304.357 116.232 292.166 115.898C279.975 115.564 274.213 121.242 274.213 121.242C274.213 121.242 278.054 112.809 289.744 108.717C301.434 104.626 317.884 108.801 324.063 125.334C330.659 142.952 323.645 153.056 312.874 154.726Z"
        fill="#1C3177" />
    <path
        d="M286.905 133.684C288.659 133.6 290.329 139.111 289.327 144.873C288.325 150.634 283.732 151.636 281.227 148.547C278.639 145.541 280.81 134.018 286.905 133.684Z"
        fill="#F26F59" />
    <path
        d="M318.719 140.197C318.719 140.197 329.323 143.203 326.317 152.471C323.478 161.406 311.788 157.899 311.788 157.899C311.788 157.899 319.303 146.543 318.719 140.197Z"
        fill="#F48B77" />
    <path
        d="M320.055 144.622C320.055 144.622 325.983 146.292 324.313 151.553C322.727 156.563 316.13 154.642 316.13 154.642C316.13 154.642 320.389 148.129 320.055 144.622Z"
        fill="#F26F59" />
    <path
        d="M273.629 124.833C273.545 124.833 273.545 124.833 273.462 124.833C272.794 125 272.46 125.668 272.627 126.336C272.627 126.419 273.963 128.59 276.468 131.095C278.889 133.517 280.559 134.686 280.643 134.686C281.311 134.853 281.979 134.519 282.146 133.851C282.313 133.183 281.812 132.765 281.144 132.181C281.144 132.181 280.309 131.179 278.388 129.175C276.384 127.171 275.048 125.584 275.048 125.584C274.631 125.083 274.213 124.749 273.629 124.833Z"
        fill="#283575" />
    <path
        d="M281.06 125.084C281.144 125.084 281.144 125.084 281.144 125.167C281.728 125.418 282.062 126.17 281.728 126.754C281.645 126.838 280.309 129.092 277.553 131.18C274.798 133.351 272.877 134.102 272.794 134.102C272.126 134.186 271.541 133.768 271.458 133.1C271.374 132.432 271.792 132.265 272.46 131.764C272.46 131.764 273.629 130.846 275.8 129.092C278.054 127.339 279.557 125.836 279.557 125.836C280.058 125.251 280.476 124.917 281.06 125.084Z"
        fill="#283575" />
    <path
        d="M294.838 125.751C294.754 125.751 294.754 125.751 294.671 125.751C293.919 125.918 293.502 126.669 293.752 127.421C293.752 127.588 295.255 130.009 297.927 132.848C300.599 135.687 302.436 137.023 302.52 137.107C303.271 137.357 304.023 136.94 304.19 136.188C304.44 135.437 303.856 134.936 303.188 134.268C303.188 134.268 302.269 133.099 300.098 130.844C297.844 128.506 296.424 126.669 296.424 126.669C295.923 126.001 295.506 125.584 294.838 125.751Z"
        fill="#283575" />
    <path
        d="M303.188 126.252C303.271 126.252 303.271 126.252 303.355 126.335C304.023 126.669 304.357 127.504 304.023 128.172C303.939 128.256 302.353 130.761 299.18 133.099C296.007 135.437 293.752 136.188 293.669 136.188C292.917 136.272 292.249 135.771 292.166 135.019C292.082 134.268 292.583 134.017 293.335 133.516C293.335 133.516 294.671 132.514 297.259 130.594C299.848 128.673 301.601 127.003 301.601 127.003C302.102 126.419 302.52 126.001 303.188 126.252Z"
        fill="#283575" />
    <path
        d="M281.06 162.157C281.561 162.407 282.146 162.574 282.73 162.574C285.152 162.574 287.573 163.409 289.661 164.495C291.581 165.497 294.838 165.914 295.506 163.242C295.589 162.908 295.589 162.574 295.589 162.24C295.589 158.566 290.329 153.222 285.486 152.805C281.728 152.471 279.474 155.059 278.973 157.314C278.722 159.318 279.474 161.322 281.06 162.157Z"
        fill="#F26F59" />
    <path
        d="M281.06 162.157C281.561 162.407 282.146 162.574 282.73 162.574C285.152 162.574 287.573 163.409 289.661 164.495C291.581 165.497 294.838 165.914 295.506 163.242C293.585 160.737 290.329 158.483 287.323 158.232C284.066 157.982 281.812 160.069 281.06 162.157Z"
        fill="#EF6EA5" />
    <path
        d="M396.541 304.357L411.905 410.903H390.028L388.191 395.706L371.741 395.456L372.409 408.983H351.117L344.019 307.864L396.541 304.357Z"
        fill="#EA62A3" />
    <path
        d="M344.019 307.864L313.959 408.064L329.824 409.484L334.249 393.118L350.866 393.786L348.277 410.402L372.409 412.74L396.54 304.357L344.019 307.864Z"
        fill="#F396BF" />
    <path d="M333.164 368.402L361.304 324.815L373.244 370.656L333.164 368.402Z" fill="#8EA6F4" />
    <path
        d="M357.546 340.93C357.546 340.93 348.862 350.032 347.609 356.545C346.273 363.058 355.208 367.066 359.299 360.219C363.808 352.62 357.546 340.93 357.546 340.93Z"
        fill="#E1EAF6" />
    <path
        d="M97.1095 175.935C97.1095 175.935 102.62 214.345 112.724 242.651C122.827 270.958 142.2 296.342 142.2 296.342C142.2 296.342 117.4 274.381 102.036 246.075C86.672 217.768 78.9065 182.281 78.9065 182.281L97.1095 175.935Z"
        fill="#E1EAF6" />
    <path
        d="M140.112 317.801C140.112 317.801 169.588 387.941 226.702 388.358C283.899 388.776 302.937 325.149 302.937 325.149C302.937 325.149 295.756 417.5 210.252 411.738C133.516 406.561 140.112 317.801 140.112 317.801Z"
        fill="#E1EAF6" />
    <path
        d="M117.651 320.222C117.651 320.222 127.17 357.463 161.572 381.678C195.89 405.893 224.614 411.738 224.614 411.738C224.614 411.738 196.475 415.412 167.667 400.048C132.263 381.261 117.651 320.222 117.651 320.222Z"
        fill="#E1EAF6" />
    <path
        d="M295.589 197.645C295.338 197.979 295.088 198.312 294.754 198.646C290.078 204.074 283.314 208.082 270.455 200.066C270.455 200.066 250.332 187.541 242.733 181.195C236.721 176.269 231.711 168.002 233.715 162.157C234.216 160.571 235.302 159.151 236.888 158.066C244.654 152.638 247.242 154.809 257.93 161.072C268.618 167.334 289.076 177.271 294.086 181.028C299.096 184.619 300.348 191.8 295.589 197.645Z"
        fill="#FEC272" />
    <path
        d="M294.754 198.563C290.078 203.99 283.314 207.998 270.455 199.982C270.455 199.982 250.332 187.457 242.733 181.111C236.721 176.185 231.711 167.918 233.715 162.073C235.469 163.576 237.139 165.079 238.892 166.332C253.004 177.02 262.857 183.032 275.298 189.127C281.561 192.217 289.577 195.557 294.754 198.563Z"
        fill="#FBB76C" />
    <path
        d="M200.566 130.928C201.151 131.596 203.322 134.101 205.66 136.773C209 140.614 212.59 144.873 212.59 144.873C212.59 144.873 216.014 147.127 220.272 143.704C224.197 140.531 223.028 136.94 221.692 135.437L215.179 129.008L207.914 121.827C207.914 121.827 204.741 120.073 201.819 123.246C198.813 126.336 199.147 129.258 200.566 130.928Z"
        fill="#F7A491" />
    <path
        d="M205.576 136.773C208.916 140.614 212.507 144.873 212.507 144.873C212.507 144.873 215.93 147.127 220.189 143.704C224.113 140.531 222.944 136.94 221.608 135.437L215.095 129.008C212.841 130.511 208.833 133.35 205.66 136.773C205.66 136.69 205.66 136.773 205.576 136.773Z"
        fill="#F48B77" />
    <path
        d="M211.338 120.073C211.421 124.081 213.509 126.252 209.584 130.594C205.66 134.936 202.654 134.685 196.391 132.18C190.129 129.675 181.278 121.075 181.111 118.653C181.027 116.315 182.948 116.649 184.2 117.735C185.453 118.82 189.544 121.743 189.544 121.743C189.544 121.743 185.703 117.317 183.866 113.727C182.029 110.136 182.53 107.882 184.2 108.132C185.954 108.466 188.041 111.639 189.962 113.643C191.966 115.647 193.552 116.566 193.552 116.566C193.552 116.566 188.96 111.305 186.705 107.297C184.451 103.206 185.787 101.703 186.789 101.035C187.791 100.367 189.962 103.039 191.548 105.293C193.135 107.548 197.31 112.057 197.31 112.057C197.31 112.057 193.552 106.128 192.133 102.705C190.713 99.198 191.214 98.6135 192.634 98.029C194.053 97.528 196.057 99.365 197.31 101.87C198.646 104.291 200.232 107.882 202.069 110.47C203.906 113.059 204.992 113.894 204.992 113.894C204.992 113.894 205.075 108.383 207.246 106.295C209.417 104.208 210.837 107.13 210.753 108.967C210.753 111.055 211.254 117.902 211.338 120.073Z"
        fill="#F7A491" />
    <path
        d="M204.741 126.503C204.741 126.503 201.652 125.417 198.562 124.666C194.554 123.664 192.049 123.664 192.049 123.664C192.049 123.664 193.886 121.075 196.141 118.236C198.395 115.481 200.9 113.894 200.9 113.894C200.9 113.894 201.568 117.735 202.57 121.66C203.155 124.248 204.741 126.503 204.741 126.503Z"
        fill="#F48B77" />
    <path
        d="M257.179 177.187C256.845 177.688 256.511 178.105 256.094 178.523C249.831 185.62 242.4 181.195 233.799 174.431C224.698 167.334 210.586 150.3 208.833 147.461C207.079 144.538 204.825 142.2 206.495 140.113C207.413 139.027 208.666 137.691 210.085 136.522C214.344 132.848 219.938 129.341 221.191 130.176C222.944 131.345 245.322 152.387 250.666 156.061C256.01 159.568 263.692 168.252 257.179 177.187Z"
        fill="#FEC272" />
    <path
        d="M256.177 178.523C249.915 185.62 242.483 181.195 233.883 174.431C224.781 167.334 210.67 150.3 208.916 147.461C207.163 144.538 204.908 142.2 206.578 140.113C207.497 139.027 208.749 137.691 210.169 136.522C215.095 142.701 227.787 158.065 238.893 166.415C245.322 171.258 250.833 175.099 256.177 178.523Z"
        fill="#FBB76C" />
    <path
        d="M359.55 198.73C359.55 199.649 359.466 200.484 359.299 201.235C358.047 208.416 352.285 209.251 340.929 211.673C328.404 214.428 312.205 218.353 302.853 218.186C296.507 218.102 289.911 214.261 286.654 206.913C285.068 203.406 284.233 199.148 284.567 194.054C285.151 182.615 293.501 178.857 302.018 179.609C302.018 179.609 328.154 185.287 339.259 186.122C350.866 187.04 359.8 189.211 359.55 198.73Z"
        fill="#FEC272" />
    <path
        d="M359.3 201.235C358.047 208.416 352.286 209.251 340.93 211.673C328.405 214.428 312.206 218.353 302.854 218.186C296.508 218.102 289.911 214.261 286.655 206.913C293.251 207.247 308.114 207.247 338.258 203.907C346.19 202.989 353.204 202.154 359.3 201.235Z"
        fill="#FBB76C" />
    <path
        d="M397.375 198.814C396.457 198.981 393.2 199.398 389.693 199.983C384.683 200.734 379.172 201.569 379.172 201.569C379.172 201.569 375.081 201.068 374.079 195.724C373.16 190.798 376.417 188.794 378.421 188.46L387.606 187.792L397.793 187.04C397.793 187.04 401.3 187.792 401.467 192.134C401.717 196.476 399.546 198.48 397.375 198.814Z"
        fill="#F7A491" />
    <path
        d="M389.693 199.983C384.683 200.734 379.172 201.569 379.172 201.569C379.172 201.569 375.081 201.068 374.079 195.724C373.16 190.798 376.417 188.794 378.421 188.46L387.606 187.792C388.357 190.464 389.526 195.223 389.693 199.816C389.693 199.899 389.693 199.983 389.693 199.983Z"
        fill="#F48B77" />
    <path
        d="M396.457 184.952C393.785 187.875 390.779 188.209 390.862 194.054C390.946 199.899 393.451 201.652 399.88 203.823C406.226 205.994 418.584 205.243 420.254 203.489C421.841 201.736 420.171 200.817 418.501 200.817C416.914 200.817 411.821 200.4 411.821 200.4C411.821 200.4 417.666 199.565 421.34 197.978C425.014 196.475 426.183 194.388 424.68 193.553C423.177 192.718 419.503 193.803 416.664 193.97C413.825 194.221 411.988 193.887 411.988 193.887C411.988 193.887 418.918 192.885 423.26 191.298C427.602 189.712 427.602 187.624 427.268 186.539C426.934 185.453 423.594 186.038 420.922 186.622C418.25 187.207 412.155 187.958 412.155 187.958C412.155 187.958 418.835 185.954 422.175 184.201C425.515 182.447 425.598 181.696 424.847 180.36C424.095 179.024 421.423 179.191 418.751 180.193C416.163 181.195 412.656 182.865 409.483 183.616C406.31 184.368 404.974 184.368 404.974 184.368C404.974 184.368 408.481 180.109 408.23 177.187C407.98 174.264 404.974 175.433 403.805 176.936C402.719 178.523 397.876 183.366 396.457 184.952Z"
        fill="#F7A491" />
    <path
        d="M397.208 194.054C397.208 194.054 400.298 195.223 403.137 196.643C406.811 198.48 408.732 200.15 408.732 200.15C408.732 200.15 409.066 196.977 409.149 193.386C409.233 189.796 408.398 187.04 408.398 187.04C408.398 187.04 405.392 189.545 402.051 191.8C399.88 193.386 397.208 194.054 397.208 194.054Z"
        fill="#F48B77" />
    <path
        d="M386.186 194.471C386.186 195.223 386.186 195.891 386.186 196.559C385.936 202.237 384.182 203.239 383.264 204.408C382.262 205.744 353.788 209.919 346.106 211.004C339.092 212.006 331.828 211.338 329.072 204.825C328.822 204.241 328.571 203.573 328.404 202.821C326.484 194.388 329.406 186.038 338.174 185.787C346.607 185.62 379.673 183.616 381.009 183.616C382.512 183.616 386.103 186.873 386.186 194.471Z"
        fill="#FEC272" />
    <path
        d="M386.186 196.559C385.936 202.237 384.182 203.239 383.264 204.408C382.262 205.744 353.788 209.919 346.107 211.004C339.093 212.006 331.828 211.338 329.073 204.825C331.912 204.575 334.917 204.241 338.09 203.907C362.806 201.151 377.586 198.396 386.186 196.559Z"
        fill="#FBB76C" />
    <path
        d="M203.322 209.501C203.322 209.501 194.972 214.261 199.314 226.368C203.656 238.476 221.525 266.782 233.382 266.198C245.239 265.613 250.666 254.925 240.897 233.549C231.127 212.173 209.167 208.249 203.322 209.501Z"
        fill="#F9A554" />
    <path
        d="M259.183 266.699C259.183 266.699 256.761 269.287 248.161 274.047C245.405 275.55 242.733 276.802 240.479 277.721C235.803 279.641 232.547 280.309 232.38 280.309C232.547 279.975 237.807 271.124 229.123 251.502C220.272 231.545 209.417 229.458 209.417 229.458L218.017 225.784L231.545 219.939C266.364 227.036 259.183 266.699 259.183 266.699Z"
        fill="#F7A491" />
    <path
        d="M259.183 266.699C259.183 266.699 256.762 269.287 248.161 274.047C245.406 275.55 242.734 276.802 240.479 277.721C241.481 272.711 241.648 262.774 234.3 247.41C228.706 235.72 222.61 229.291 218.018 225.784L231.545 219.939C266.364 227.036 259.183 266.699 259.183 266.699Z"
        fill="#F48B77" />
    <path
        d="M300.349 237.641C287.156 259.768 263.776 281.812 258.766 283.983C253.756 286.154 249.414 285.319 247.744 278.138C247.076 275.216 246.074 269.037 244.237 261.689C241.481 250.75 236.805 237.14 228.288 227.704C214.01 211.923 201.401 211.672 203.405 209.501C205.326 207.33 214.845 210.587 231.545 204.992C248.245 199.398 259.1 189.545 268.786 180.777C271.541 178.272 274.881 176.686 278.472 175.851C288.241 173.596 299.931 177.103 307.196 182.948C310.703 185.787 313.124 189.127 313.876 192.634C314.293 194.722 314.627 196.642 314.878 198.396C316.214 208.249 314.043 214.678 300.349 237.641Z"
        fill="#FEC272" />
    <path
        d="M307.112 182.948C302.186 184.869 295.005 185.871 286.237 184.284C276.134 182.447 276.134 178.857 278.472 175.851C288.241 173.596 299.931 177.103 307.112 182.948Z"
        fill="#FBB76C" />
    <path
        d="M300.349 237.641C287.156 259.769 263.776 281.813 258.766 283.984C253.756 286.155 249.414 285.32 247.744 278.139C247.076 275.216 246.074 269.037 244.237 261.689C254.758 256.679 270.706 247.661 282.229 234.218C300.85 212.591 307.446 193.47 314.711 198.313C314.794 198.313 314.794 198.396 314.878 198.48C316.214 208.249 314.043 214.679 300.349 237.641Z"
        fill="#FBB76C" />
    <path
        d="M238.893 266.699C237.39 280.226 228.706 282.48 215.262 288.993C201.652 295.59 194.22 303.522 185.787 313.459C181.779 318.135 178.105 322.226 174.598 324.564C170.757 327.153 167.166 327.654 163.91 324.564C157.647 318.719 154.057 306.445 164.995 281.896C167.918 275.299 170.924 269.955 174.013 265.53C182.28 253.506 190.88 248.412 198.98 244.07C225.783 229.792 240.813 249.164 238.893 266.699Z"
        fill="#E1ECFF" />
    <path
        d="M238.893 266.699C237.39 280.226 228.706 282.48 215.262 288.993C201.652 295.59 194.22 303.522 185.787 313.459C181.779 318.135 178.105 322.227 174.598 324.564C176.518 305.109 192.884 284.484 192.884 284.484C192.884 284.484 186.204 281.061 179.608 274.13C177.353 271.709 175.433 268.619 173.93 265.613C182.196 253.589 190.797 248.496 198.896 244.154C225.783 229.792 240.813 249.164 238.893 266.699Z"
        fill="#D0E0F1" />
    <path
        d="M171.508 385.77C156.728 402.47 146.541 398.378 145.873 391.949C145.873 391.782 145.873 391.615 145.873 391.448C145.372 385.185 148.128 379.09 152.136 371.074C156.227 362.807 161.655 356.044 168.669 354.958C173.261 354.29 176.518 355.209 178.689 357.797C179.941 359.3 180.776 361.221 181.277 363.726C182.53 369.654 180.693 375.416 171.508 385.77Z"
        fill="#9DABD7" />
    <path
        d="M169.253 381.178C158.231 393.619 149.798 394.538 145.873 391.532C145.372 385.269 148.128 379.174 152.136 371.158C156.227 362.891 161.655 356.128 168.669 355.042C173.261 354.374 176.518 355.293 178.689 357.881C178.772 358.299 178.939 358.716 179.023 359.217C180.275 365.062 178.355 370.74 169.253 381.178Z"
        fill="#273675" />
    <path
        d="M171.424 371.658C161.404 380.843 154.557 378.589 154.056 375.082C154.056 374.998 154.056 374.915 154.056 374.831C153.722 371.408 155.559 368.068 158.315 363.726C161.07 359.217 164.744 355.459 169.504 354.875C172.593 354.541 174.848 355.042 176.267 356.378C177.102 357.213 177.687 358.298 178.021 359.634C178.939 362.807 177.687 365.897 171.424 371.658Z"
        fill="#212E60" />
    <path
        d="M184.283 317.968C181.945 331.578 178.772 360.219 178.772 360.219C178.772 360.219 177.52 362.724 174.931 364.644C173.345 365.73 171.341 366.648 168.836 366.565C162.156 366.398 160.569 362.39 160.569 362.39C160.569 362.39 157.647 336.505 157.647 317.133C157.647 297.761 162.74 290.914 168.669 291.331C176.685 291.999 181.361 294.337 183.615 298.679C185.87 303.021 185.786 309.367 184.283 317.968Z"
        fill="#E1ECFF" />
    <path
        d="M184.283 317.968C181.945 331.578 178.772 360.219 178.772 360.219C178.772 360.219 177.52 362.724 174.931 364.644C174.597 355.292 174.43 340.596 175.85 327.737C177.186 315.63 179.19 306.862 183.615 298.763C185.87 303.021 185.786 309.367 184.283 317.968Z"
        fill="#D0E0F1" />
    <path
        d="M159.15 308.783C159.234 306.278 161.655 304.441 164.077 305.193C165.246 305.527 166.665 305.777 168.001 305.944C169.588 306.027 170.924 306.111 172.176 306.028C174.514 306.028 176.268 307.948 176.101 310.203L174.932 325.817C174.765 327.654 173.429 329.157 171.592 329.408C170.089 329.575 168.168 329.658 166.331 329.408C163.993 328.99 161.822 327.821 160.403 326.819C159.317 326.068 158.649 324.815 158.733 323.479L159.15 308.783Z"
        fill="#C4DCF2" />
    <path
        d="M240.479 277.721C240.479 277.721 233.883 281.395 224.113 282.313C214.344 283.148 198.98 279.892 190.129 271.458C181.278 263.025 168.502 240.313 158.983 228.372C149.464 216.432 142.283 210.754 146.792 202.738C147.126 202.153 147.46 201.569 147.878 201.068C155.643 191.465 175.85 198.98 190.463 212.925C202.153 224.03 228.873 237.724 238.058 255.51C238.976 257.18 239.644 258.85 240.145 260.353C243.986 270.957 240.479 277.721 240.479 277.721Z"
        fill="#E1ECFF" />
    <path
        d="M240.479 277.721C240.479 277.721 233.883 281.395 224.113 282.313C214.344 283.148 198.98 279.892 190.129 271.458C181.278 263.025 168.502 240.313 158.983 228.372C149.464 216.432 142.283 210.754 146.792 202.738C147.126 202.153 147.46 201.569 147.878 201.068L176.101 227.704C176.101 227.704 187.373 238.559 202.069 255.426C214.01 269.12 233.382 263.192 240.312 260.436C243.986 270.957 240.479 277.721 240.479 277.721Z"
        fill="#D0E0F1" />
    <path
        d="M102.955 215.43L102.036 197.644L121.492 197.143C121.492 197.143 125.166 200.567 124.832 205.911C124.498 211.255 121.408 216.014 121.408 216.014L102.955 215.43Z"
        fill="#F48B77" />
    <path
        d="M183.031 224.364C181.528 226.619 179.691 227.871 177.604 228.456C171.007 230.376 161.739 225.116 150.383 223.028C134.351 220.106 111.973 217.434 111.973 217.434C111.973 217.434 112.891 214.094 112.975 209.418C112.975 207.915 112.891 206.328 112.641 204.658C111.555 197.143 107.965 193.553 107.965 193.553C107.965 193.553 130.677 189.795 152.053 193.135C156.478 193.803 160.904 194.805 164.995 196.225C170.339 198.062 174.848 200.734 178.272 203.823C184.952 210.086 187.29 218.018 183.031 224.364Z"
        fill="#E1ECFF" />
    <path
        d="M177.604 228.539C171.007 230.46 161.739 225.199 150.383 223.112C134.351 220.189 111.973 217.517 111.973 217.517C111.973 217.517 112.891 214.177 112.975 209.501C121.742 210.587 156.395 215.346 169.421 222.694C172.761 224.615 175.516 226.619 177.604 228.539Z"
        fill="#D0E0F1" />
    <path
        d="M178.188 203.823C178.105 204.324 177.938 204.909 177.854 205.41C177.103 208.249 175.349 210.754 174.013 212.34C173.011 213.593 171.425 214.177 169.922 214.01L152.971 211.505C150.049 211.088 148.295 207.831 149.381 204.909C149.965 203.489 150.466 201.819 150.717 200.149C151.051 198.229 151.301 196.559 151.385 195.139C151.468 194.388 151.635 193.72 151.969 193.135C156.395 193.803 160.82 194.805 164.912 196.225C170.339 198.062 174.848 200.734 178.188 203.823Z"
        fill="#C4DCF2" />
    <path
        d="M100.283 219.939C100.032 220.022 99.7815 220.106 99.531 220.189C93.185 222.11 89.177 219.354 85.2525 214.344C81.328 209.334 73.5625 191.966 70.807 184.201C68.0515 176.435 66.632 167.167 76.7355 164.411C77.5705 164.161 78.5725 163.994 79.491 163.91C89.511 162.825 103.289 169.839 107.631 191.382C112.14 213.843 105.042 218.352 100.283 219.939Z"
        fill="#273675" />
    <path
        d="M100.283 219.94C100.032 220.023 99.7817 220.107 99.5312 220.19C97.8612 220.691 96.2747 220.858 94.8552 220.775C91.0142 220.441 88.0917 218.019 85.2527 214.345C81.3282 209.335 73.5627 191.967 70.8072 184.202C68.8867 178.774 67.6342 172.595 70.4732 168.504C71.7257 166.75 73.7297 165.331 76.7357 164.496C77.5707 164.245 78.5727 164.078 79.4912 163.995C84.3342 166.082 90.7637 171.593 96.6087 185.287C103.957 201.987 102.287 213.677 100.283 219.94Z"
        fill="#9DABD7" />
    <path
        d="M94.8549 220.69C91.0139 220.356 88.0914 217.935 85.2524 214.261C81.3279 209.251 73.5624 191.883 70.8069 184.117C68.8864 178.69 67.6339 172.511 70.4729 168.419C72.2264 167 75.0654 165.831 79.0734 168.336C86.0039 172.678 95.5229 192.551 96.9424 203.99C98.6124 217.517 97.2764 219.438 94.8549 220.69Z"
        fill="#8096CC" />
    <path
        d="M312.79 83.2495L311.371 100.284C311.371 100.284 319.053 100.952 326.985 109.552C334.834 118.153 335.085 127.755 335.085 127.755L358.966 122.578C358.966 122.578 344.604 120.574 339.594 112.809C334.584 105.043 347.944 84.9195 347.944 84.9195C347.944 84.9195 333.081 95.6075 325.566 96.025C317.967 96.359 312.79 83.2495 312.79 83.2495Z"
        fill="#C4DCF2" />
</svg>